<?xml version="1.0" standalone="no"?>
<!DOCTYPE svg PUBLIC "-//W3C//DTD SVG 1.1//EN" "http://www.w3.org/Graphics/SVG/1.1/DTD/svg11.dtd" >
<svg xmlns="http://www.w3.org/2000/svg">
<metadata></metadata>
<defs>
<font id="helveticaregular" horiz-adv-x="525" >
<font-face units-per-em="1000" ascent="725" descent="-275" />
<missing-glyph horiz-adv-x="247" />
<glyph horiz-adv-x="0" />
<glyph horiz-adv-x="0" />
<glyph horiz-adv-x="0" />
<glyph unicode="&#x9;" horiz-adv-x="278" />
<glyph unicode="&#xd;" horiz-adv-x="278" />
<glyph unicode="&#xa;" horiz-adv-x="278" />
<glyph unicode=" "  horiz-adv-x="247" />
<glyph unicode="&#x09;" horiz-adv-x="247" />
<glyph unicode="&#xa0;" horiz-adv-x="247" />
<glyph unicode="!" horiz-adv-x="194" d="M49 733q0 8 6.5 13.5t13.5 5.5h59q8 0 14 -5.5t6 -13.5l-8 -520q0 -8 -5.5 -13.5t-13.5 -5.5h-45q-8 0 -14 5.5t-6 13.5zM52 19v94q0 8 5 13.5t14 5.5h56q8 0 13.5 -5t5.5 -14v-94q0 -8 -5.5 -13.5t-13.5 -5.5h-56q-8 0 -13.5 5.5t-5.5 13.5z" />
<glyph unicode="&#x22;" horiz-adv-x="354" d="M17 535q0 6 1 9l46 189q4 19 20 19h64q11 0 11 -11q0 -5 -1 -8l-58 -189q-5 -19 -19 -19h-55q-9 0 -9 10zM195 535q0 6 1 9l46 189q4 19 20 19h64q11 0 11 -11q0 -5 -1 -8l-58 -189q-6 -19 -19 -19h-55q-9 0 -9 10z" />
<glyph unicode="#" horiz-adv-x="641" d="M37 221v2l2 29q2 19 20 19h89l18 194h-90q-7 0 -11.5 5.5t-4.5 13.5v2l2 30q1 8 6.5 13.5t13.5 5.5h89l17 189q0 7 6 13t13 6h53q7 0 11 -5t4 -12v-2l-17 -189h147l17 189q1 8 6.5 13.5t12.5 5.5h52q7 0 11 -4.5t4 -12.5v-2l-17 -189h94q7 0 11.5 -5.5t4.5 -13.5v-2 l-2 -30q0 -8 -6 -13.5t-14 -5.5h-93l-18 -194h94q7 0 11.5 -5.5t4.5 -13.5v-2l-2 -29q0 -8 -6 -13.5t-14 -5.5h-94l-16 -183q-2 -19 -18 -19h-52q-7 0 -11.5 5t-4.5 12v2l16 183h-147l-16 -183q-1 -8 -6 -13.5t-12 -5.5h-53q-7 0 -11.5 5.5t-4.5 11.5v2l16 183h-89 q-7 0 -11.5 5.5t-4.5 13.5zM235 271h147l18 194h-147z" />
<glyph unicode="$" horiz-adv-x="575" d="M63 573q0 79 47.5 123t132.5 52v85q0 8 5.5 14t14.5 6h47q8 0 14 -6t6 -14v-86q69 -7 135 -33q8 -3 12.5 -7t4.5 -11v-51q0 -18 -19 -12q-35 11 -62 18.5t-57.5 12t-59.5 4.5q-43 0 -71.5 -8.5t-43 -29.5t-14.5 -57q0 -34 24 -59t85 -62l92 -55q58 -35 92 -66t49 -64.5 t15 -73.5q0 -74 -42.5 -128.5t-139.5 -67.5v-94q0 -7 -6.5 -13.5t-13.5 -6.5h-47q-8 0 -14 6.5t-6 13.5v91q-44 4 -87.5 15t-72.5 25q-13 7 -16 11t-3 16v41q0 20 20 12q45 -16 97 -27t95 -11q51 0 82.5 14t45 40.5t13.5 62.5q0 37 -24.5 64.5t-94.5 69.5l-97 59 q-72 44 -105 87t-33 100z" />
<glyph unicode="%" horiz-adv-x="778" d="M35 495v93q0 81 35.5 121.5t100.5 40.5q42 0 72.5 -18t46.5 -54.5t16 -89.5v-93q0 -80 -35.5 -121.5t-99.5 -41.5q-65 0 -100.5 41.5t-35.5 121.5zM100 495q0 -102 71 -102q70 0 70 102v93q0 102 -70 102q-71 0 -71 -102v-93zM138 9q0 3 5 13l419 709q8 12 20 12h46 q15 0 15 -9q0 -3 -5 -13l-419 -709q-8 -12 -20 -12h-46q-15 0 -15 9zM474 156v93q0 82 35.5 122t100.5 40q64 0 99.5 -40t35.5 -122v-93q0 -81 -35.5 -122t-99.5 -41q-65 0 -100.5 41t-35.5 122zM539 156q0 -102 71 -102q70 0 70 102v93q0 102 -70 102q-71 0 -71 -102v-93z " />
<glyph unicode="&#x26;" horiz-adv-x="661" d="M43 176v8q0 41 15 74t47.5 62.5t81.5 60.5l-7 8q-66 77 -85 116t-19 78v8q0 77 55.5 118t154.5 41q57 0 101.5 -18t71 -54t26.5 -87v-8q0 -35 -12.5 -63.5t-45 -60.5t-95.5 -74l-28 -19l181 -195q39 69 39 176v14q0 16 16 16h43q17 0 17 -16v-14q0 -65 -16 -124.5 t-47 -105.5l89 -95q5 -5 5 -11q0 -5 -3 -8t-8 -3h-69q-9 0 -16 7l-50 54q-79 -68 -197 -68q-103 0 -174 44.5t-71 138.5zM135 176q0 -57 43.5 -85.5t109.5 -28.5q89 0 149 51l-199 213q-60 -37 -81.5 -66.5t-21.5 -75.5v-8zM158 583q0 -21 5.5 -38.5t23 -42.5t56.5 -69 l10 -11l34 21q49 30 73.5 51t33 40.5t8.5 48.5v8q0 48 -30.5 70t-85.5 22q-128 0 -128 -92v-8z" />
<glyph unicode="'" horiz-adv-x="183" d="M24 535q0 6 1 9l46 189q4 19 20 19h64q11 0 11 -11q0 -5 -1 -8l-58 -189q-5 -19 -19 -19h-55q-9 0 -9 10z" />
<glyph unicode="(" horiz-adv-x="288" d="M48 265v13q0 134 37 258.5t103 204.5q9 11 23 11h47q10 0 10 -8q0 -6 -3 -10q-33 -49 -57 -102t-40 -109t-24 -118.5t-8 -126.5v-13q0 -266 129 -456q3 -4 3 -10q0 -8 -10 -8h-47q-8 0 -13 2t-10 9q-66 80 -103 204.5t-37 258.5z" />
<glyph unicode=")" horiz-adv-x="288" d="M32 -201q0 6 3 10q129 190 129 456v13q0 69 -8.5 131t-24.5 118t-40.5 108.5t-55.5 98.5q-3 4 -3 10q0 8 10 8h47q14 0 23 -11q33 -39 59 -91.5t43.5 -111.5t27.5 -125.5t10 -134.5v-13q0 -134 -37.5 -259t-102.5 -204q-6 -7 -10.5 -9t-12.5 -2h-47q-10 0 -10 8z" />
<glyph unicode="*" horiz-adv-x="447" d="M38 598q1 2 1 3v2l9 29q3 10 13 10q3 0 9 -2l124 -41v131q0 19 15 19h30q15 0 15 -19l-1 -131l125 41q6 2 9 2q10 0 13 -10l9 -29q1 -2 1 -5q0 -10 -14 -15l-125 -39l77 -106q5 -6 5 -13t-6 -11l-24 -18q-5 -3 -8 -3q-8 0 -15 10l-76 106l-76 -106q-6 -10 -15 -10 q-4 0 -8 3l-25 18q-6 4 -6 11t5 13l78 106l-124 39q-15 5 -15 15z" />
<glyph unicode="+" horiz-adv-x="575" d="M60 367v48q0 7 5.5 11.5t14.5 4.5h167v168q0 20 16 20h48q7 0 11.5 -6t4.5 -14v-168h168q8 0 14 -4.5t6 -11.5v-48q0 -16 -20 -16h-168v-167q0 -9 -4.5 -14.5t-11.5 -5.5h-48q-16 0 -16 20v167h-167q-20 0 -20 16z" />
<glyph unicode="," horiz-adv-x="203" d="M16 -86q0 5 1 7l57 189q6 19 20 19h66q13 0 13 -11q0 -2 -2 -8l-75 -189q-4 -10 -8 -14.5t-11 -4.5h-49q-12 0 -12 12z" />
<glyph unicode="-" horiz-adv-x="315" d="M39 269v47q0 8 5.5 13t13.5 5h199q19 0 19 -18v-47q0 -17 -19 -17h-199q-19 0 -19 17z" />
<glyph unicode="." horiz-adv-x="190" d="M51 21v93q0 8 5.5 13.5t13.5 5.5h56q8 0 13.5 -5t5.5 -14v-93q0 -9 -5.5 -14.5t-13.5 -5.5h-56q-8 0 -13.5 6t-5.5 14z" />
<glyph unicode="/" horiz-adv-x="348" d="M19 12q0 6 2 13l226 698q6 20 17 20h57q14 0 14 -12q0 -5 -1 -8l-226 -703q-6 -20 -18 -20h-57q-14 0 -14 12z" />
<glyph unicode="0" horiz-adv-x="585" d="M47 304v135q0 161 64 236t182 75t181.5 -75t63.5 -236v-135q0 -161 -63.5 -236t-181.5 -75t-182 75.5t-64 235.5zM139 304q0 -81 18.5 -133.5t53 -76.5t82.5 -24q74 0 114 56t40 178v135q0 123 -40 178.5t-114 55.5q-37 0 -64.5 -13t-47.5 -41t-31 -73.5t-11 -106.5v-135 z" />
<glyph unicode="1" horiz-adv-x="585" d="M115 601v51q0 8 10 13l151 72q12 6 21 6h41q8 0 13.5 -5t5.5 -14v-704q0 -9 -5 -14.5t-13 -5.5h-55q-8 0 -13 6t-5 14v629l-129 -56q-8 -3 -13 -3q-9 0 -9 11z" />
<glyph unicode="2" horiz-adv-x="585" d="M69 19v81q0 52 16 99t49.5 87.5t87.5 76.5l101 68q63 42 83 68.5t20 71.5q0 36 -14 58.5t-42 33.5t-70 11q-34 0 -68.5 -6t-68.5 -15.5t-56 -16.5q-9 -3 -14.5 1t-5.5 13v34q0 9 3 13.5t12 7.5q26 11 55.5 21t69.5 17t76 7q51 0 91.5 -11.5t66.5 -33t40 -55.5t14 -79 q0 -40 -13 -71.5t-41 -60t-76 -61.5l-96 -65q-54 -37 -85 -69t-43 -65.5t-12 -78.5v-21h337q20 0 20 -17v-44q0 -9 -6 -13.5t-14 -4.5h-397q-8 0 -14 5.5t-6 13.5z" />
<glyph unicode="3" horiz-adv-x="585" d="M74 52v34q0 20 20 14q59 -16 95.5 -23.5t78.5 -7.5q81 0 115.5 32.5t34.5 105.5v21q0 29 -11 57t-37.5 46.5t-68.5 18.5h-182q-19 0 -19 18v35q0 8 5.5 13.5t13.5 5.5h182q45 0 71 17.5t36 44.5t10 57v14q0 43 -14 68.5t-47 38t-89 12.5q-42 0 -79.5 -8t-94.5 -23 q-20 -6 -20 14v34q0 9 3.5 13t11.5 8q33 14 83 26t99 12q119 0 179.5 -44.5t60.5 -150.5v-14q0 -26 -6 -48.5t-18 -43t-30.5 -37t-40.5 -27.5q49 -24 72 -66t23 -91v-21q0 -109 -63 -161.5t-177 -52.5q-48 0 -98 12t-84 26q-9 4 -12 8t-3 13z" />
<glyph unicode="4" horiz-adv-x="585" d="M28 237v38q0 21 12 37l296 415q10 16 29 16h59q26 0 26 -22v-447h87q8 0 13.5 -5t5.5 -13v-40q0 -8 -5.5 -13t-13.5 -5h-87v-178q0 -8 -4.5 -14t-12.5 -6h-58q-17 0 -17 20v178h-289q-22 0 -31.5 9t-9.5 30zM112 280q0 -6 8 -6h239v342q0 6 -4 6h-1q-4 0 -8 -6l-231 -328 q-3 -4 -3 -8z" />
<glyph unicode="5" horiz-adv-x="585" d="M67 52v34q0 20 20 14q104 -31 175 -31q84 0 123.5 39.5t39.5 117.5v15q0 74 -48 104t-161 30h-120q-7 0 -11.5 5.5t-4.5 11.5v1l28 333q1 8 7 12.5t13 4.5h344q8 0 14 -4.5t6 -12.5v-44q0 -16 -20 -16h-287l-16 -216h47q97 0 163.5 -19.5t102 -66t35.5 -123.5v-15 q0 -111 -66 -172t-187 -61q-48 0 -98 12t-84 26q-9 5 -12 8.5t-3 12.5z" />
<glyph unicode="6" horiz-adv-x="585" d="M49 277v175q0 106 29 171.5t87.5 96t144.5 30.5q92 0 180 -37q9 -4 12 -7.5t3 -13.5v-36q0 -20 -20 -14q-63 17 -96 24.5t-79 7.5q-73 0 -110.5 -27t-49 -74t-11.5 -121v-11q89 20 151 20q69 0 124 -19.5t88 -66t33 -123.5v-6q0 -80 -27 -136.5t-81.5 -86.5t-135.5 -30 q-57 0 -101.5 17.5t-75.5 52t-48 88.5t-17 126zM139 277q0 -80 17.5 -126t50.5 -65t84 -19q36 0 64.5 9.5t48 30t30.5 56t11 83.5v6q0 51 -21.5 82t-56 43.5t-77.5 12.5q-34 0 -78.5 -5.5t-72.5 -12.5v-95z" />
<glyph unicode="7" horiz-adv-x="585" d="M62 682v42q0 7 6 13t14 6h365q39 0 57 -17.5t18 -45.5q0 -25 -13 -52l-288 -613q-8 -15 -22 -15h-60q-15 0 -15 15q0 5 3 11l302 628q1 1 1 4q0 7 -7 7h-341q-20 0 -20 17z" />
<glyph unicode="8" horiz-adv-x="585" d="M44 207v19q0 47 26 92t71 70q-46 24 -70.5 65t-24.5 91v9q0 68 31 111.5t85 64.5t125 21h10q71 0 125 -21t85 -64.5t31 -111.5v-9q0 -34 -11 -63.5t-31.5 -53t-52.5 -39.5q45 -25 71 -69.5t26 -92.5v-19q0 -105 -68.5 -159.5t-174.5 -54.5h-10q-106 0 -174.5 54.5 t-68.5 159.5zM134 544q0 -51 31 -85.5t96 -34.5h62q64 0 95.5 34.5t31.5 85.5v9q0 59 -39.5 91t-113.5 32h-10q-74 0 -113.5 -32t-39.5 -91v-9zM135 207q0 -65 39.5 -101.5t112.5 -36.5h10q74 0 113 36.5t39 101.5v19q0 30 -13 59t-41.5 48t-71.5 19h-62q-42 0 -71 -18.5 t-42 -48t-13 -59.5v-19z" />
<glyph unicode="9" horiz-adv-x="585" d="M49 491v6q0 61 15.5 107.5t45.5 79t76 49.5t107 17q57 0 101.5 -17t76 -52t48 -89t16.5 -126v-175q0 -81 -16.5 -137t-49 -91.5t-81.5 -52.5t-114 -17q-47 0 -95 11t-85 26q-9 5 -12 8.5t-3 12.5v36q0 20 20 14q13 -3 33.5 -9t45 -11.5t49.5 -8.5t47 -3q73 0 110.5 27 t49 74t11.5 121v11q-46 -10 -80 -15t-71 -5q-52 0 -94.5 10.5t-77.5 35t-54 65.5t-19 98zM139 491q0 -75 43.5 -106.5t111.5 -31.5q30 0 75 5t76 13v95q0 117 -37.5 163.5t-114.5 46.5q-48 0 -82.5 -17t-53 -57t-18.5 -105v-6z" />
<glyph unicode=":" horiz-adv-x="195" d="M53 19v94q0 7 5.5 13t14.5 6h55q8 0 14 -5.5t6 -13.5v-94q0 -8 -5.5 -13.5t-14.5 -5.5h-55q-8 0 -14 5.5t-6 13.5zM53 437v93q0 8 5.5 14t14.5 6h55q9 0 14.5 -5.5t5.5 -14.5v-93q0 -8 -5.5 -13.5t-14.5 -5.5h-55q-8 0 -14 5.5t-6 13.5z" />
<glyph unicode=";" horiz-adv-x="208" d="M8 -87q0 5 1 7l57 189q6 19 20 19h65q13 0 13 -11q0 -2 -2 -8l-75 -189q-4 -11 -7.5 -15.5t-11.5 -4.5h-48q-12 0 -12 13zM65 437v93q0 8 5.5 14t13.5 6h57q8 0 13.5 -6t5.5 -14v-93q0 -8 -5.5 -13.5t-13.5 -5.5h-57q-8 0 -13.5 5.5t-5.5 13.5z" />
<glyph unicode="&#x3c;" horiz-adv-x="559" d="M92 391q0 19 18 34l241 204q15 13 31 13h66q12 0 12 -10q0 -8 -10 -17l-262 -224l262 -224q10 -8 10 -17q0 -10 -12 -10h-66q-16 0 -31 13l-241 204q-18 16 -18 34z" />
<glyph unicode="=" horiz-adv-x="569" d="M72 257v48q0 16 20 16h385q20 0 20 -16v-48q0 -16 -20 -16h-385q-20 0 -20 16zM72 478v48q0 16 20 16h385q20 0 20 -16v-48q0 -16 -20 -16h-385q-20 0 -20 16z" />
<glyph unicode="&#x3e;" horiz-adv-x="559" d="M99 150q0 9 10 17l262 224l-262 224q-10 9 -10 17q0 10 12 10h66q15 0 31 -13l241 -204q18 -15 18 -34q0 -18 -18 -34l-241 -204q-16 -13 -31 -13h-66q-12 0 -12 10z" />
<glyph unicode="?" horiz-adv-x="436" d="M-10 648v48q0 7 4.5 10.5t12.5 7.5q27 12 77.5 24t103.5 12q94 0 147 -35t53 -116v-12q0 -25 -7 -47.5t-27 -51.5t-57 -72l-45 -51q-28 -32 -35 -41.5t-12.5 -25t-5.5 -36.5v-49q0 -8 -6 -13.5t-14 -5.5h-44q-8 0 -13.5 5.5t-5.5 13.5v49q0 33 5.5 55.5t20.5 45.5t40 50 l46 51q37 41 49.5 66.5t12.5 56.5v12q0 39 -24.5 55.5t-77.5 16.5q-44 0 -84 -8.5t-95 -26.5q-19 -6 -19 12zM109 19v93q0 8 6 14t14 6h56q8 0 13.5 -6t5.5 -14v-93q0 -8 -5.5 -13.5t-13.5 -5.5h-56q-7 0 -13.5 5.5t-6.5 13.5z" />
<glyph unicode="@" horiz-adv-x="752" d="M33 161q0 21 1 31l15 156q9 90 54.5 160t124.5 109t183 39q100 0 170 -40t104.5 -110t34.5 -162q0 -88 -20.5 -153t-61 -100.5t-97.5 -35.5q-63 0 -91 38q-57 -43 -110 -43q-52 0 -84.5 20.5t-46.5 52.5t-14 68q0 14 1 20l11 117q3 39 16.5 68t37.5 50t56 31t72 10 q57 0 128 -15q11 -2 16 -6.5t5 -14.5l-24 -256q0 -10 -0.5 -18t-1.5 -15q0 -41 37 -41q41 0 64.5 37.5t32 88t8.5 97.5q0 76 -27.5 133t-83 89t-135.5 32q-129 0 -205.5 -68.5t-88.5 -185.5l-15 -152q-2 -22 -2 -32q0 -44 15.5 -83t47 -68.5t79.5 -45.5t110 -16q53 0 144 7 h1q6 0 7.5 -2.5t1.5 -4.5v-32q0 -13 -16 -14q-69 -8 -139 -8t-128.5 19t-100.5 55t-64 86t-22 108zM278 193q0 -72 70 -72q34 0 82 28q-1 7 -1 22q0 19 1 29l19 209q-42 6 -68 6q-44 0 -65.5 -21.5t-25.5 -67.5l-11 -114q-1 -7 -1 -19z" />
<glyph unicode="A" horiz-adv-x="623" d="M24 16q0 5 1 7l185 651q12 42 40.5 59t61.5 17q21 0 41 -6.5t36 -23.5t24 -45l185 -652q1 -2 1 -7q0 -16 -17 -16h-59q-14 0 -17 15l-65 230h-259l-64 -230q-1 -6 -7 -10.5t-11 -4.5h-59q-7 0 -12 4.5t-5 11.5zM201 324h221l-91 329q-5 18 -19 18q-15 0 -20 -18z" />
<glyph unicode="B" horiz-adv-x="591" d="M63 39v666q0 34 32 37q66 8 159 8q87 0 151.5 -17.5t103 -60.5t38.5 -115v-16q0 -55 -28.5 -96.5t-78.5 -60.5q51 -17 81 -60.5t30 -101.5v-17q0 -212 -292 -212q-106 0 -163 9q-17 2 -25 10.5t-8 26.5zM155 74q17 0 51.5 -2t52.5 -2q66 0 109.5 11.5t67.5 41t24 82.5v17 q0 57 -34.5 92t-116.5 35h-154v-275zM155 422h154q147 0 147 119v16q0 67 -50.5 91.5t-151.5 24.5q-23 0 -30 -0.5t-29 -1t-40 -1.5v-248z" />
<glyph unicode="C" d="M48 302v1v138q0 167 75.5 238t191.5 71q31 0 63.5 -7t60 -16.5t43.5 -18.5q10 -6 10 -16v-49q0 -6 -5 -9t-12 0q-26 10 -75.5 22t-84.5 12q-176 0 -176 -227v-138q0 -83 22 -133.5t61 -72.5t93 -22q61 0 160 34q8 3 12.5 0.5t4.5 -9.5v-49q0 -10 -10 -16 q-16 -9 -43.5 -18.5t-60 -16.5t-63.5 -7q-116 0 -191.5 71t-75.5 238z" />
<glyph unicode="D" horiz-adv-x="615" d="M63 28v687q0 21 21 25q21 3 42 5t61 3.5t79 1.5q144 0 223.5 -77t79.5 -234v-135q0 -157 -79.5 -234t-223.5 -77q-19 0 -52 1t-59.5 2.5t-38.5 2.5t-32 4q-21 3 -21 25zM155 73q32 -2 111 -2q100 0 156 53t56 180v135q0 86 -26.5 138t-74 73.5t-111.5 21.5q-61 0 -111 -3 v-596z" />
<glyph unicode="E" d="M63 179v385q0 97 52.5 141.5t160.5 44.5q50 0 108 -1.5t87 -4.5q10 -1 10 -14v-50q0 -12 -11 -12h-193q-53 0 -79.5 -10t-35 -32t-8.5 -62v-139h307q9 0 14.5 -5.5t5.5 -14.5v-38q0 -9 -6 -14.5t-14 -5.5h-307v-168q0 -40 8.5 -62t35 -32t79.5 -10h193q11 0 11 -12v-51 q0 -12 -10 -14q-47 -5 -195 -5q-71 0 -118 19t-71 60.5t-24 106.5z" />
<glyph unicode="F" d="M63 20v544q0 97 52.5 141.5t160.5 44.5q50 0 108 -1.5t87 -4.5q10 -1 10 -14v-50q0 -12 -11 -12h-193q-53 0 -79.5 -10t-35 -32t-8.5 -62v-139h307q9 0 14.5 -5.5t5.5 -14.5v-38q0 -9 -6 -14.5t-14 -5.5h-307v-327q0 -9 -6 -14.5t-14 -5.5h-51q-8 0 -14 6t-6 14z" />
<glyph unicode="G" horiz-adv-x="586" d="M47 304v134q0 88 23 148.5t61.5 96.5t86.5 51.5t100 15.5q53 0 109.5 -14t80.5 -28q10 -5 10 -16v-49q0 -15 -17 -9q-22 7 -51 14.5t-65.5 13.5t-66.5 6q-81 0 -130.5 -53t-49.5 -177v-134q0 -60 12.5 -103.5t36 -71t56.5 -41t76 -13.5q54 0 113 5v286q0 8 5 14t13 6h54 q7 0 13 -5.5t6 -14.5v-336q0 -9 -5 -15t-13 -7q-26 -4 -79 -9.5t-108 -5.5t-104 17t-87 54.5t-59 97t-21 142.5z" />
<glyph unicode="H" horiz-adv-x="650" d="M63 20v703q0 7 6 13.5t14 6.5h51q8 0 14 -6t6 -14v-290h342v290q0 7 6 13.5t14 6.5h51q8 0 14 -6t6 -14v-703q0 -9 -6 -14.5t-14 -5.5h-51q-8 0 -14 6t-6 14v332h-342v-332q0 -9 -6 -14.5t-14 -5.5h-51q-8 0 -14 6t-6 14z" />
<glyph unicode="I" horiz-adv-x="233" d="M71 20v704q0 7 5.5 13t12.5 6h55q7 0 12.5 -5.5t5.5 -13.5v-704q0 -8 -5 -14t-13 -6h-55q-7 0 -12.5 5.5t-5.5 14.5z" />
<glyph unicode="J" horiz-adv-x="249" d="M-28 -124q0 17 20 17h39q38 0 51 15.5t13 54.5v761q0 7 6 13t13 6h53q7 0 13 -6t6 -13v-761q0 -73 -36.5 -108t-118.5 -35q-13 0 -31 3t-22 5q-6 3 -6 11v37z" />
<glyph unicode="K" horiz-adv-x="584" d="M63 20v704q0 8 5.5 13.5t13.5 5.5h53q8 0 13.5 -5t5.5 -14v-323l288 333q9 9 20 9h72q14 0 14 -11q0 -6 -4 -10l-301 -340l301 -360q5 -5 5 -12q0 -10 -13 -10h-78q-14 0 -22 10l-282 343v-333q0 -9 -5 -14.5t-13 -5.5h-55q-8 0 -13 5.5t-5 14.5z" />
<glyph unicode="L" horiz-adv-x="496" d="M63 179v544q0 7 6 13.5t14 6.5h51q8 0 14 -6t6 -14v-544q0 -40 8.5 -62t35 -32t79.5 -10h193q11 0 11 -12v-47q0 -13 -10 -14q-59 -9 -195 -9q-62 0 -108.5 13.5t-75.5 54.5t-29 118z" />
<glyph unicode="M" horiz-adv-x="731" d="M63 20v694q0 12 8.5 20.5t20.5 8.5h65q24 0 32 -17l165 -343q5 -11 12 -11t12 11l165 343q4 10 11 13.5t21 3.5h65q8 0 15 -4t10.5 -10.5t3.5 -14.5v-694q0 -9 -6 -14.5t-14 -5.5h-49q-8 0 -14 6t-6 14v593q0 3 -1 3t-2 -2l-125 -258q-15 -34 -35.5 -48.5t-50.5 -14.5 q-29 0 -49 14t-37 48l-125 259q-1 2 -2 2t-1 -3v-593q0 -9 -6 -14.5t-14 -5.5h-49q-8 0 -14 6t-6 14z" />
<glyph unicode="N" horiz-adv-x="650" d="M63 12v703q0 12 8.5 20t20.5 8h55q20 0 27.5 -4t13.5 -16l307 -584l2 -3q1 0 1 3v585q0 8 5 13.5t13 5.5h53q8 0 13 -5.5t5 -13.5v-695q0 -12 -9 -20.5t-20 -8.5h-62q-24 0 -32 16l-309 587q-2 3 -3 3t-1 -3v-584q0 -8 -5 -13.5t-13 -5.5h-52q-18 0 -18 12z" />
<glyph unicode="O" horiz-adv-x="637" d="M48 307v129q0 81 20 141t56.5 98.5t85.5 56.5t109 18t109 -18t85 -56.5t56 -98t20 -141.5v-129q0 -81 -19.5 -141t-55.5 -98.5t-86 -56.5t-109 -18t-108.5 18t-86.5 56.5t-56.5 99t-19.5 140.5zM140 307q0 -81 21.5 -133t61 -75.5t96.5 -23.5q178 0 178 232v129 q0 61 -12.5 106.5t-35 72.5t-55 40t-75.5 13q-179 0 -179 -232v-129z" />
<glyph unicode="P" horiz-adv-x="569" d="M63 20v697q0 22 24 25q69 8 166 8q84 0 147 -21.5t98 -70t35 -125.5v-13q0 -224 -280 -224q-34 0 -100 5v-281q0 -9 -5 -14.5t-13 -5.5h-54q-8 0 -13 5.5t-5 14.5zM153 376q5 0 17.5 -0.5t27 -1t30.5 -1.5t25 -1q68 0 109.5 15t60.5 48t19 85v13q0 75 -45 107.5 t-144 32.5q-52 0 -100 -4v-293z" />
<glyph unicode="Q" horiz-adv-x="646" d="M48 307v129q0 81 20 141t56.5 98.5t85.5 56.5t109 18t109 -18t85 -56.5t56 -98t20 -141.5v-129q0 -194 -111 -270q6 -48 74 -48h59q21 0 21 -17v-29q0 -15 -19 -21.5t-61 -6.5q-61 0 -99.5 20t-56.5 66q-38 -8 -77 -8q-59 0 -108.5 18t-86.5 56.5t-56.5 99t-19.5 140.5z M140 307q0 -81 21.5 -133t61 -75.5t96.5 -23.5q178 0 178 232v129q0 61 -12.5 106.5t-35 72.5t-55 40t-75.5 13q-179 0 -179 -232v-129z" />
<glyph unicode="R" horiz-adv-x="603" d="M63 20v700q0 20 24 22q18 2 53.5 4.5t69.5 3t53 0.5q83 0 145.5 -21t98.5 -69t36 -125v-7q0 -80 -42.5 -131.5t-114.5 -70.5l182 -304q3 -4 3 -9q0 -13 -13 -13h-64q-11 0 -15.5 2t-10.5 11l-179 298h-9h-17q-30 0 -110 3v-294q0 -9 -5 -14.5t-13 -5.5h-54q-8 0 -13 5.5 t-5 14.5zM153 391q88 -2 110 -2q65 0 106 12.5t62.5 43t21.5 83.5v7q0 48 -21 78t-62.5 42.5t-106.5 12.5q-86 0 -110 -3v-274z" />
<glyph unicode="S" horiz-adv-x="531" d="M40 573q0 58 27 98t77 59.5t117 19.5q53 0 104 -12t77 -24q8 -3 12.5 -7t4.5 -11v-51q0 -18 -19 -12q-35 11 -62 18.5t-57.5 12t-59.5 4.5q-67 0 -98 -21.5t-31 -73.5q0 -34 24 -59t85 -62l92 -55q86 -50 121 -97t35 -107q0 -85 -55 -142.5t-184 -57.5q-48 0 -101.5 12.5 t-88.5 28.5q-13 7 -16 11t-3 16v41q0 20 20 12q44 -15 96 -26.5t96 -11.5q51 0 82.5 14t45 40.5t13.5 62.5q0 37 -24.5 64.5t-94.5 69.5l-97 59q-72 44 -105 87t-33 100z" />
<glyph unicode="T" horiz-adv-x="576" d="M28 681v44q0 7 6 12.5t14 5.5h481q8 0 13.5 -5t5.5 -13v-44q0 -16 -19 -16h-195v-645q0 -9 -5 -14.5t-13 -5.5h-55q-8 0 -13 5.5t-5 14.5v645h-195q-20 0 -20 16z" />
<glyph unicode="U" horiz-adv-x="632" d="M60 270v454q0 8 5.5 13.5t13.5 5.5h54q8 0 13.5 -5t5.5 -14v-454q0 -101 37 -150t127 -49q60 0 96.5 22.5t52 66t15.5 110.5v454q0 8 5.5 13.5t13.5 5.5h54q8 0 13.5 -5.5t5.5 -13.5v-454q0 -71 -17 -123t-50.5 -86.5t-80.5 -51t-108 -16.5q-62 0 -108.5 16.5t-79.5 51 t-50.5 86.5t-17.5 123z" />
<glyph unicode="V" horiz-adv-x="631" d="M28 726q0 8 5.5 12.5t12.5 4.5h58q5 0 11 -4.5t7 -10.5l174 -637q6 -21 20 -21q13 0 19 21l175 637q5 15 17 15h59q17 0 17 -17q0 -4 -1 -6l-184 -651q-12 -43 -40 -59.5t-62 -16.5q-81 0 -102 76l-185 651q-1 2 -1 6z" />
<glyph unicode="W" horiz-adv-x="812" d="M28 723v3q0 7 5 12t12 5h58q14 0 17 -17l97 -637l1.5 -9t1 -4.5t2.5 -1.5q4 0 7 15l89 336q11 40 31 58.5t57 18.5t57.5 -19t30.5 -58l89 -336q3 -15 7 -15q2 0 3 4.5t2 10.5l97 637q3 17 17 17h58q5 0 9 -2t6 -6t2 -9v-3l-111 -676q-5 -29 -20.5 -40t-41.5 -11h-43 q-44 0 -57 50l-98 370q-2 9 -7 9t-7 -9l-99 -370q-6 -23 -21 -36.5t-36 -13.5h-42q-26 0 -41.5 11t-20.5 40z" />
<glyph unicode="X" horiz-adv-x="629" d="M37 15q0 6 3 10l222 353l-220 341q-3 5 -3 10q0 14 15 14h65q12 0 18 -10l180 -285l174 285q7 10 19 10h59q8 0 12 -4t4 -11q0 -4 -3 -9l-215 -343l225 -351q3 -4 3 -11q0 -6 -4.5 -10t-11.5 -4h-63q-8 0 -12 3.5t-9 11.5l-183 291l-179 -291q-9 -15 -21 -15h-59 q-16 0 -16 15z" />
<glyph unicode="Y" horiz-adv-x="570" d="M28 729q0 6 4.5 10t12.5 4h61q5 0 10.5 -4.5t7.5 -9.5l138 -324q11 -26 23 -26q11 0 23 26l139 324q7 14 17 14h61q8 0 12.5 -4t4.5 -10q0 -4 -3 -11l-155 -348q-23 -53 -54 -66v-284q0 -8 -5.5 -14t-12.5 -6h-55q-7 0 -12.5 6t-5.5 14v284q-30 11 -54 66l-154 348 q-3 7 -3 11z" />
<glyph unicode="Z" horiz-adv-x="576" d="M45 68q0 36 15 58l358 521q3 4 3 8q0 7 -10 7h-332q-8 0 -14 4.5t-6 12.5v47q0 7 6 12t14 5h356q45 0 65 -13.5t20 -52.5q0 -14 -4 -31.5t-12 -27.5l-357 -521q-3 -4 -3 -9q0 -6 10 -6h359q8 0 14 -4.5t6 -12.5v-47q0 -8 -6 -13t-14 -5h-385q-48 0 -65.5 14t-17.5 54z " />
<glyph unicode="[" horiz-adv-x="307" d="M64 -175v899q0 7 5 13t12 6h186q7 0 13.5 -6.5t6.5 -13.5v-33q0 -7 -6.5 -13.5t-13.5 -6.5h-114v-791h114q8 0 14 -6t6 -14v-33q0 -8 -6.5 -14t-13.5 -6h-186q-7 0 -12 6t-5 13z" />
<glyph unicode="\" horiz-adv-x="347" d="M19 729q0 5 4 9.5t10 4.5h51q11 0 17 -20l227 -703q1 -2 1 -6q0 -6 -4 -10t-10 -4h-51q-12 0 -18 20l-226 703q-1 2 -1 6z" />
<glyph unicode="]" horiz-adv-x="307" d="M20 -141q0 8 5.5 14t14.5 6h114v791h-114q-8 0 -14 6.5t-6 13.5v33q0 7 6 13.5t14 6.5h186q7 0 12 -6t5 -13v-899q0 -7 -5 -13t-12 -6h-186q-8 0 -14 6t-6 14v33z" />
<glyph unicode="^" horiz-adv-x="565" d="M81 572q0 6 4 11l115 149q8 11 14 14.5t16 3.5h106q10 0 16 -3.5t14 -14.5l115 -149q4 -5 4 -11q0 -9 -11 -9h-60q-10 0 -14 3t-14 15l-103 120l-103 -120q-9 -11 -13.5 -14.5t-14.5 -3.5h-60q-11 0 -11 9z" />
<glyph unicode="_" horiz-adv-x="506" d="M-24 -65q0 7 5.5 11.5t14.5 4.5h515q20 0 20 -16v-33q0 -16 -20 -16h-515q-20 0 -20 16v33z" />
<glyph unicode="`" horiz-adv-x="339" d="M32 772q0 7 11 7h66q13 0 25 -15l97 -124q4 -4 4 -10q0 -7 -9 -7h-54q-5 0 -8.5 1.5t-6.5 4.5t-8 9l-113 126q-4 4 -4 8z" />
<glyph unicode="a" horiz-adv-x="497" d="M39 158v9q0 56 23.5 91.5t76.5 53t141 17.5h74v40q0 63 -24 87t-83 24q-45 0 -77.5 -6t-75.5 -19q-10 -3 -16.5 0.5t-6.5 12.5v39q0 12 14 18q23 10 68 21t94 11q195 0 195 -188v-331q0 -18 -15 -22q-39 -11 -79 -17t-90 -6q-117 0 -168 39.5t-51 125.5zM128 159 q0 -35 11 -56t39.5 -31t79.5 -10q20 0 38.5 1t33.5 3t24 5v194h-74q-48 0 -76 -5t-45 -17t-24 -29.5t-7 -45.5v-9z" />
<glyph unicode="b" horiz-adv-x="518" d="M55 33v700q0 7 4.5 13t13.5 6h51q8 0 13.5 -5.5t5.5 -13.5v-186q25 5 55.5 7.5t61.5 2.5q55 0 95.5 -16.5t68 -47t41 -76t13.5 -105.5v-72q0 -116 -54 -181.5t-164 -65.5q-96 0 -184 17q-14 3 -17.5 7.5t-3.5 15.5zM143 76q73 -6 117 -6q71 0 100.5 42t29.5 128v72 q0 85 -29.5 126.5t-100.5 41.5q-79 0 -117 -7v-397z" />
<glyph unicode="c" horiz-adv-x="434" d="M40 236v78q0 76 23.5 130.5t72 83.5t117.5 29q41 0 77 -10t54 -20q9 -5 11.5 -8.5t2.5 -12.5v-36q0 -15 -12 -15q-5 0 -11 2q-65 23 -122 23q-125 0 -125 -166v-78q0 -83 32 -124.5t93 -41.5q57 0 122 23q6 2 11 2q12 0 12 -15v-36q0 -9 -3 -13t-11 -8q-19 -10 -54.5 -20 t-76.5 -10q-51 0 -91.5 17t-68 48.5t-40.5 75.5t-13 102z" />
<glyph unicode="d" horiz-adv-x="518" d="M40 240v72q0 60 13.5 105t40.5 76t68 47.5t96 16.5q62 0 117 -10v186q0 8 5.5 13.5t13.5 5.5h51q8 0 13 -5.5t5 -13.5v-700q0 -11 -4 -16t-17 -7q-88 -17 -184 -17q-72 0 -121.5 30t-73 86.5t-23.5 130.5zM128 240q0 -86 29.5 -128t100.5 -42q43 0 117 6v397q-24 5 -52 6 t-65 1q-71 0 -100.5 -42t-29.5 -126v-72z" />
<glyph unicode="e" horiz-adv-x="524" d="M40 233v90q0 109 58.5 171.5t163.5 62.5q71 0 120.5 -28.5t74.5 -81.5t25 -124v-54q0 -22 -19 -22h-335v-14q0 -87 34 -125t105 -38q33 0 65 6.5t62.5 17t49.5 17.5q11 5 17 0.5t6 -13.5v-41q0 -10 -14 -18q-87 -46 -186 -46q-62 0 -113 22.5t-82.5 76t-31.5 141.5z M128 314h265v9q0 55 -14.5 90.5t-43 51t-73.5 15.5q-134 0 -134 -157v-9z" />
<glyph unicode="f" horiz-adv-x="371" d="M20 505v27q0 8 5.5 13t13.5 5h97v72q0 52 16 82.5t47 43.5t77 13q28 0 56 -6q19 -5 19 -16v-33q0 -15 -18 -15h-48q-36 0 -48.5 -14t-12.5 -55v-72h105q8 0 13.5 -5t5.5 -13v-39q0 -17 -19 -17h-105v-456q0 -8 -5.5 -14t-13.5 -6h-49q-9 0 -14.5 6t-5.5 14v456l-97 11 q-19 1 -19 18z" />
<glyph unicode="g" horiz-adv-x="518" d="M40 239v73q0 84 24.5 138t74 80.5t124.5 26.5q79 0 179 -23q13 -2 17 -7t4 -16v-511q0 -107 -54 -152t-161 -45q-52 0 -97 12.5t-67 25.5q-14 9 -14 23v33q0 9 6.5 13.5t16.5 -0.5q51 -19 79.5 -27t75.5 -8q49 0 76 10.5t39 37.5t12 77v7q-20 -5 -54.5 -9.5t-57.5 -4.5 q-223 0 -223 246zM128 239q0 -64 15 -101.5t44.5 -54t75.5 -16.5q24 0 57 3t55 8v394q-59 11 -112 11q-37 0 -63 -9.5t-41.5 -30t-23 -53t-7.5 -78.5v-73z" />
<glyph unicode="h" horiz-adv-x="531" d="M55 20v712q0 9 5.5 14.5t13.5 5.5h50q9 0 14 -5.5t5 -14.5v-206q35 16 76 23.5t77 7.5q54 0 94.5 -21.5t63 -69t22.5 -117.5v-329q0 -8 -6.5 -14t-13.5 -6h-48q-8 0 -14 6t-6 14v329q0 72 -27.5 101.5t-79.5 29.5q-28 0 -68.5 -7t-69.5 -21v-432q0 -8 -6 -14t-14 -6h-49 q-7 0 -13 6t-6 14z" />
<glyph unicode="i" horiz-adv-x="217" d="M63 658v80q0 8 5.5 14t14.5 6h51q9 0 14.5 -5.5t5.5 -14.5v-80q0 -9 -6 -14.5t-14 -5.5h-51q-8 0 -14 6t-6 14zM64 20v510q0 8 6 14t14 6h48q9 0 14.5 -5.5t5.5 -14.5v-510q0 -9 -6 -14.5t-14 -5.5h-48q-7 0 -13.5 6t-6.5 14z" />
<glyph unicode="j" horiz-adv-x="217" d="M-45 -140q0 14 21 14h41q29 0 38 12t9 50v594q0 8 5 14t13 6h52q9 0 13.5 -5.5t4.5 -14.5v-594q0 -74 -31 -103.5t-94 -29.5q-27 0 -54 4q-18 3 -18 16v37zM63 657v81q0 8 5.5 14t14.5 6h51q9 0 14.5 -5.5t5.5 -14.5v-81q0 -8 -5.5 -13.5t-14.5 -5.5h-51q-7 0 -13.5 5.5 t-6.5 13.5z" />
<glyph unicode="k" horiz-adv-x="476" d="M55 20v712q0 8 5.5 14t14.5 6h48q8 0 14 -6t6 -14v-416l200 225q8 9 20 9h70q15 0 15 -11q0 -6 -5 -11l-220 -238l222 -268q3 -3 3 -9q0 -13 -11 -13h-72q-7 0 -11 2.5t-12 10.5l-199 246v-239q0 -8 -6.5 -14t-13.5 -6h-48q-8 0 -14 6t-6 14z" />
<glyph unicode="l" horiz-adv-x="214" d="M63 20v713q0 7 4.5 13t13.5 6h52q8 0 13 -5.5t5 -13.5v-713q0 -9 -5 -14.5t-13 -5.5h-52q-8 0 -13 5.5t-5 14.5z" />
<glyph unicode="m" horiz-adv-x="772" d="M55 20v482q0 20 18 24q65 16 112.5 23.5t88.5 7.5q35 0 66.5 -10t48.5 -30q87 41 166 41q48 0 84 -17.5t57 -58.5t21 -108v-354q0 -9 -6 -14.5t-14 -5.5h-48q-7 0 -13.5 6t-6.5 14v354q0 59 -24 83t-67 24q-48 0 -117 -27q9 -35 9 -78v-356q0 -8 -5 -14t-13 -6h-53 q-7 0 -12 6t-5 14v356q0 42 -8.5 65t-25 31.5t-43.5 8.5q-58 0 -122 -17v-444q0 -9 -5 -14.5t-13 -5.5h-53q-7 0 -12 6t-5 14z" />
<glyph unicode="n" horiz-adv-x="531" d="M55 20v482q0 19 18 24q122 31 207 31q56 0 95 -14t60.5 -40t31 -64t9.5 -91v-328q0 -8 -6.5 -14t-13.5 -6h-48q-8 0 -14 6t-6 14v328q0 50 -12 79.5t-37.5 42t-66.5 12.5q-62 0 -129 -18v-444q0 -8 -6 -14t-14 -6h-49q-7 0 -13 6t-6 14z" />
<glyph unicode="o" d="M40 237v76q0 113 57.5 178.5t164.5 65.5q108 0 165.5 -65.5t57.5 -178.5v-76q0 -112 -57.5 -178t-165.5 -66q-107 0 -164.5 66t-57.5 178zM128 237q0 -167 134 -167q68 0 101.5 43.5t33.5 123.5v76q0 52 -14.5 89.5t-44.5 57.5t-76 20q-68 0 -101 -43.5t-33 -123.5v-76z " />
<glyph unicode="p" horiz-adv-x="518" d="M55 -177v688q0 10 4.5 15t16.5 8q25 7 57.5 12t64 8t62.5 3q73 0 121.5 -30t72.5 -85.5t24 -131.5v-72q0 -119 -55 -182t-163 -63q-55 0 -117 11v-181q0 -8 -5.5 -13.5t-13.5 -5.5h-51q-8 0 -13 5.5t-5 13.5zM143 77q53 -10 117 -10q70 0 100 43t30 128v72q0 55 -12 93 t-41 59t-77 21q-61 0 -117 -10v-396z" />
<glyph unicode="q" horiz-adv-x="518" d="M40 238v72q0 57 13 102.5t40.5 78t68 49.5t96.5 17q89 0 184 -23q13 -2 17 -7t4 -16v-688q0 -8 -5 -13.5t-13 -5.5h-51q-8 0 -13.5 5.5t-5.5 13.5v181q-60 -11 -117 -11q-54 0 -95 16t-68.5 47.5t-41 77t-13.5 104.5zM128 238q0 -84 30 -127.5t100 -43.5q63 0 117 10v396 q-21 4 -33 5t-37 3t-47 2q-71 0 -100.5 -44t-29.5 -129v-72z" />
<glyph unicode="r" horiz-adv-x="363" d="M55 20v484q0 18 18 24q57 16 102.5 23t86.5 7q40 0 68 -5q11 -2 14 -6.5t3 -14.5v-36q0 -10 -4 -13.5t-15 -3.5q-34 2 -66 2q-62 0 -119 -15v-446q0 -8 -6 -14t-14 -6h-49q-7 0 -13 6t-6 14z" />
<glyph unicode="s" horiz-adv-x="446" d="M40 421q0 52 27 82t69.5 42t94.5 12q40 0 80.5 -8.5t59.5 -19.5q8 -5 11 -7.5t3 -10.5v-41q0 -9 -6 -13t-17 0q-28 11 -65 18t-66 7q-47 0 -75 -12t-28 -48q0 -26 16 -43.5t53 -36.5l99 -51q42 -21 66 -43t34 -46t10 -54q0 -51 -25.5 -86t-70 -52t-101.5 -17 q-43 0 -85 10t-65 22q-14 7 -14 18v41q0 9 6.5 13.5t16.5 -0.5q75 -29 141 -29q109 0 109 76q0 23 -15.5 40t-59.5 39l-101 52q-50 26 -76 61.5t-26 84.5z" />
<glyph unicode="t" horiz-adv-x="375" d="M20 505v27q0 18 19 18h97v98q0 17 18 20l52 8h3q7 0 11 -4.5t4 -12.5v-109h108q8 0 14 -6t6 -14v-34q0 -8 -6.5 -14t-13.5 -6h-108v-349q0 -40 11.5 -51.5t42.5 -11.5h56q21 0 21 -14v-35q0 -15 -18 -17q-33 -5 -65 -5q-73 0 -104.5 27.5t-31.5 106.5v349l-97 11 q-19 1 -19 18z" />
<glyph unicode="u" horiz-adv-x="531" d="M55 202v328q0 8 5.5 14t14.5 6h48q8 0 14 -6t6 -14v-328q0 -74 27 -104t89 -30q23 0 62 5.5t67 12.5v444q0 8 5.5 14t14.5 6h49q8 0 13.5 -6t5.5 -14v-482q0 -19 -18 -24q-120 -31 -207 -31q-74 0 -117.5 24.5t-61 70t-17.5 114.5z" />
<glyph unicode="v" horiz-adv-x="516" d="M32 533q0 8 4.5 12.5t11.5 4.5h55q13 0 19 -19l115 -436q5 -18 9.5 -23.5t11.5 -5.5t11.5 6t9.5 23l115 436q6 19 19 19h55q8 0 12 -4.5t4 -12.5q0 -4 -1 -7l-135 -476q-9 -31 -31.5 -44t-58.5 -13q-35 0 -57.5 12.5t-32.5 44.5l-135 476q-1 3 -1 7z" />
<glyph unicode="w" horiz-adv-x="772" d="M31 526v4q0 8 5.5 14t13.5 6h54q6 0 11 -4.5t6 -11.5l83 -456q2 -12 8 -12q5 0 8 12l98 384q9 30 40 30h56q32 0 40 -30l98 -384q3 -12 8 -12q6 0 8 12l83 456q1 7 6 11.5t11 4.5h54q8 0 13.5 -6t5.5 -14v-4l-97 -464q-7 -33 -14.5 -46.5t-22 -18t-47.5 -4.5 q-27 0 -41.5 5t-23.5 20t-17 47l-87 340q-2 7 -5 7q-2 0 -3 -1t-2 -6l-87 -340q-11 -44 -27 -58t-55 -14q-31 0 -46.5 4.5t-23 18t-14.5 46.5z" />
<glyph unicode="x" horiz-adv-x="532" d="M32 10q0 7 5 13l180 257l-170 245q-5 8 -5 13q0 12 15 12h65q11 0 20 -14l127 -188l128 188q6 9 10 11.5t11 2.5h58q13 0 13 -12q0 -5 -5 -13l-168 -239l183 -263q4 -5 4 -12q0 -11 -13 -11h-69q-8 0 -14 8l-143 209l-143 -207q-6 -10 -17 -10h-60q-12 0 -12 10z" />
<glyph unicode="y" horiz-adv-x="520" d="M32 533q0 17 18 17h55q6 0 11 -5t6 -11l118 -434q6 -22 19 -22h16l122 457q1 7 6.5 11t12.5 4h56q16 0 16 -17q0 -5 -1 -7l-165 -576q-16 -57 -36.5 -88t-55 -45.5t-91.5 -14.5q-44 0 -84 9q-21 5 -21 16v37q0 16 19 16h3q66 -6 89 -6q44 0 65.5 17.5t33.5 67.5l10 41 h-14q-27 0 -44 12.5t-30 56.5l-133 457q-1 2 -1 7z" />
<glyph unicode="z" horiz-adv-x="463" d="M40 55v19q0 21 5 35t18 30l258 321q4 5 4 9q0 7 -10 7h-243q-8 0 -14 6t-6 14v34q0 8 5.5 14t14.5 6h294q56 0 56 -49v-24q0 -28 -23 -55l-263 -329q-5 -5 -5 -11q0 -8 8 -8h264q8 0 14 -6t6 -14v-34q0 -9 -6 -14.5t-14 -5.5h-302q-30 0 -45.5 16t-15.5 39z" />
<glyph unicode="{" horiz-adv-x="322" d="M16 245v58q36 26 48 52t12 72v178q0 54 13 83.5t45.5 42t94.5 12.5h50q8 0 14 -6t6 -14v-33q0 -8 -6 -14t-14 -6h-45q-44 0 -56.5 -12t-12.5 -53v-178q0 -54 -16 -90.5t-55 -63.5q39 -27 55 -63t16 -90v-176q0 -22 2.5 -34t9.5 -18.5t21 -9.5t36 -3h46q9 0 14.5 -5.5 t5.5 -14.5v-33q0 -9 -6 -14.5t-14 -5.5h-51q-62 0 -94.5 12.5t-45.5 42t-13 83.5v176q0 47 -12.5 73.5t-47.5 51.5z" />
<glyph unicode="|" horiz-adv-x="217" d="M64 -175v899q0 7 6 13t13 6h52q8 0 13 -5.5t5 -13.5v-899q0 -8 -5 -13.5t-13 -5.5h-52q-7 0 -13 6t-6 13z" />
<glyph unicode="}" horiz-adv-x="322" d="M22 -141q0 8 5.5 14t14.5 6h46q44 0 56.5 12.5t12.5 52.5v176q0 36 7 63t22.5 49.5t41.5 40.5q-40 27 -55.5 63.5t-15.5 90.5v178q0 41 -12.5 53t-56.5 12h-45q-7 0 -13.5 6.5t-6.5 13.5v33q0 7 6.5 13.5t13.5 6.5h50q62 0 94.5 -12.5t45.5 -41.5t13 -84v-178 q0 -46 12.5 -72.5t47.5 -51.5v-58q-35 -25 -47.5 -51.5t-12.5 -73.5v-176q0 -55 -13 -84t-45.5 -41.5t-94.5 -12.5h-51q-8 0 -14 6t-6 14v33z" />
<glyph unicode="~" horiz-adv-x="570" d="M72 371v26q0 65 29 98.5t84 33.5q40 0 76 -28q52 -43 85 -68q11 -9 22.5 -14.5t18.5 -5.5q25 0 31.5 11t6.5 43v28q0 9 6.5 15.5t15.5 6.5h29q6 0 11 -3t8 -8t3 -11v-28q0 -66 -26 -98t-85 -32q-40 0 -77 28l-78 62q-19 16 -28.5 21.5t-18.5 5.5q-25 0 -32.5 -13.5 t-7.5 -43.5v-26q0 -10 -6.5 -16t-15.5 -6h-29q-9 0 -15.5 6t-6.5 16z" />
<glyph unicode="&#xa1;" horiz-adv-x="194" d="M48 -183l7 520q0 8 6 13.5t14 5.5h45q9 0 14 -5.5t5 -13.5l8 -520q0 -8 -6 -13.5t-14 -5.5h-59q-7 0 -13.5 5.5t-6.5 13.5zM51 437v94q0 8 5.5 13.5t13.5 5.5h56q8 0 13.5 -5.5t5.5 -13.5v-94q0 -8 -5.5 -13.5t-13.5 -5.5h-56q-8 0 -13.5 5.5t-5.5 13.5z" />
<glyph unicode="&#xa2;" horiz-adv-x="557" d="M100 236v78q0 97 42.5 160t120.5 78v93q0 7 6 13.5t14 6.5h41q8 0 14 -6.5t6 -13.5v-90q57 -5 100 -28q9 -5 11.5 -8.5t2.5 -12.5v-36q0 -21 -23 -13q-65 23 -122 23q-125 0 -125 -166v-78q0 -83 32 -124.5t93 -41.5q57 0 122 23q23 8 23 -13v-36q0 -9 -3 -13t-11 -8 q-46 -23 -100 -28v-91q0 -8 -6 -14t-14 -6h-41q-8 0 -14 6t-6 14v94q-51 10 -88 42t-56 82t-19 114z" />
<glyph unicode="&#xa3;" horiz-adv-x="577" d="M56 365v42q0 7 6 12.5t14 5.5h50v65q0 87 20.5 142t69 82.5t131.5 27.5t158 -29q9 -3 12 -7t3 -14v-38q0 -20 -20 -14q-93 25 -153 25q-39 0 -64.5 -8.5t-39.5 -27.5t-20 -53.5t-6 -85.5v-65h215q8 0 13.5 -5t5.5 -13v-42q0 -8 -6 -13t-14 -5h-214v-152q0 -33 -10 -62.5 t-25 -56.5h319q20 0 20 -15v-44q0 -17 -20 -17h-399q-17 0 -17 15v39q0 6 10 23q17 28 24 54t7 64v152h-52q-9 0 -13.5 5t-4.5 13z" />
<glyph unicode="&#xa4;" horiz-adv-x="583" d="M46 572q0 9 5 12l28 27q5 5 11 5q7 0 15 -8l80 -80q47 34 106 34q29 0 56.5 -9.5t49.5 -24.5l82 82q7 7 15 7q6 0 11 -5l27 -27q5 -5 5 -11q0 -9 -7 -15l-82 -82q33 -46 33 -104q0 -30 -8 -55.5t-26 -50.5l82 -82q7 -6 7 -15q0 -7 -5 -12l-27 -27q-5 -5 -11 -5 q-8 0 -15 7l-84 84q-46 -33 -102 -33q-58 0 -104 33l-82 -82q-8 -8 -16 -8q-5 0 -10 5l-27 28q-5 7 -5 11q0 9 7 15l81 81q-34 45 -34 106q0 58 32 103l-81 81q-7 6 -7 15zM170 373q0 -24 9 -45.5t26.5 -39t39 -26.5t45.5 -9q33 0 60 16.5t43.5 43.5t16.5 60q0 49 -35.5 84 t-84.5 35t-84.5 -35t-35.5 -84z" />
<glyph unicode="&#xa5;" horiz-adv-x="591" d="M29 231v30q0 8 6 14t14 6h201v21l-55 110h-146q-7 0 -13.5 6t-6.5 14v30q0 8 6 14t14 6h111l-119 236q-3 8 -3 12q0 13 16 13h63q5 0 10 -4.5t7 -9.5l162 -339l162 339q6 14 17 14h62q17 0 17 -14q0 -5 -3 -11l-119 -236h110q9 0 14.5 -5.5t5.5 -14.5v-30q0 -9 -6 -14.5 t-14 -5.5h-145l-55 -110v-21h200q9 0 14.5 -5.5t5.5 -14.5v-30q0 -8 -6 -14t-14 -6h-200v-191q0 -9 -5 -14.5t-13 -5.5h-57q-7 0 -12 6t-5 14v191h-201q-7 0 -13.5 6.5t-6.5 13.5z" />
<glyph unicode="&#xa6;" horiz-adv-x="217" d="M64 156q0 8 5 13.5t13 5.5h53q8 0 13 -5.5t5 -13.5v-347q0 -8 -5 -14t-13 -6h-53q-8 0 -13 6t-5 14v347zM64 362v347q0 8 5 13.5t13 5.5h53q8 0 13 -5.5t5 -13.5v-347q0 -8 -5 -14t-13 -6h-53q-8 0 -13 6t-5 14z" />
<glyph unicode="&#xa7;" horiz-adv-x="529" d="M39 368q0 29 8.5 53.5t25.5 51.5q-16 17 -25 44t-9 57q0 87 56.5 131.5t182.5 44.5q38 0 73 -6t62.5 -14.5t45.5 -15.5q17 -8 17 -18v-51q0 -18 -19 -12q-34 11 -62.5 18.5t-56.5 11.5t-60 4q-84 0 -114 -21t-30 -72q0 -23 8.5 -40.5t29.5 -34.5t63 -42l109 -64 q84 -49 115 -94.5t31 -105.5q0 -64 -29 -109q29 -43 29 -101q0 -87 -56 -143t-191 -56q-51 0 -101.5 12t-79.5 24q-11 6 -14 8.5t-3 9.5v51q0 18 19 12q34 -11 60.5 -18t55 -11.5t63.5 -5.5q84 0 117 30t33 87q0 27 -9 46t-31.5 38t-67.5 46l-112 67q-51 30 -81 59.5 t-41.5 59t-11.5 69.5zM125 368q0 -23 10 -42.5t30 -37t49 -34.5l110 -64q35 -21 67 -43q7 22 7 46q0 28 -9 46.5t-31.5 37t-61.5 42.5l-90 55q-7 5 -21 13.5t-28 17.5t-23 16q-5 -15 -7 -24.5t-2 -28.5z" />
<glyph unicode="&#xa8;" horiz-adv-x="350" d="M48 660v81q0 8 6.5 14t13.5 6h39q8 0 14 -6t6 -14v-81q0 -8 -6 -13.5t-14 -5.5h-39q-7 0 -13.5 5.5t-6.5 13.5zM223 660v81q0 8 6 14t14 6h39q8 0 14 -6.5t6 -13.5v-81q0 -8 -6 -13.5t-14 -5.5h-39q-8 0 -14 5.5t-6 13.5z" />
<glyph unicode="&#xa9;" horiz-adv-x="348" d="M32 608q0 39 20 73.5t54 54.5t74 20t73.5 -20t54 -54t20.5 -74q0 -41 -20.5 -75t-54.5 -53.5t-73 -19.5t-73.5 19.5t-54.5 53.5t-20 75zM65 608q0 -32 15 -58.5t41 -42t59 -15.5q32 0 58 15t41.5 41.5t15.5 59.5q0 47 -33.5 81.5t-81.5 34.5t-81.5 -34.5t-33.5 -81.5z M105 606v8q0 87 75 87q27 0 46 -10q7 -4 7 -12v-10q0 -14 -13 -9q-32 7 -40 7q-19 0 -28.5 -12.5t-9.5 -40.5v-8q0 -29 9.5 -41t28.5 -12q8 0 15.5 1.5t14.5 3.5t10 2q13 5 13 -9v-10q0 -8 -7 -12q-18 -10 -46 -10q-75 0 -75 87z" />
<glyph unicode="&#xaa;" horiz-adv-x="289" d="M24 519v7q0 48 34.5 70t107.5 22h32v13q0 35 -12 49t-42 14q-26 0 -84 -5h-2q-14 0 -14 13v21q0 12 15 14q46 9 85 9q59 0 86.5 -29t27.5 -86v-181q0 -13 -10 -16q-44 -13 -98 -13q-67 0 -96.5 23.5t-29.5 74.5zM82 519q0 -27 14.5 -39t53.5 -12q18 0 49 5v103h-23h-9 q-31 0 -50 -5.5t-27 -16t-8 -28.5v-7z" />
<glyph unicode="&#xab;" horiz-adv-x="601" d="M18 277q0 16 11 28l169 169q10 10 21 10h66q6 0 8.5 -2.5t2.5 -6.5q0 -7 -6 -13l-178 -185l178 -185q6 -6 6 -13q0 -9 -11 -9h-66q-11 0 -21 10l-169 169q-11 11 -11 28zM286 277q0 16 11 28l169 169q10 10 21 10h66q6 0 8.5 -2.5t2.5 -6.5q0 -7 -6 -13l-178 -185 l178 -185q6 -6 6 -13q0 -9 -11 -9h-66q-11 0 -21 10l-169 169q-11 11 -11 28z" />
<glyph unicode="&#xac;" horiz-adv-x="570" d="M72 478v48q0 16 20 16h389q17 0 17 -17v-282q0 -8 -6.5 -14t-13.5 -6h-42q-8 0 -14 6t-6 14v219h-324q-20 0 -20 16z" />
<glyph unicode="&#xad;" horiz-adv-x="315" d="M39 269v47q0 8 5.5 13t13.5 5h199q19 0 19 -18v-47q0 -17 -19 -17h-199q-19 0 -19 17z" />
<glyph unicode="&#xae;" horiz-adv-x="348" d="M32 608q0 39 20 73.5t54 54.5t74 20t73.5 -20t54 -54t20.5 -74q0 -41 -20.5 -75t-54.5 -53.5t-73 -19.5t-73.5 19.5t-54.5 53.5t-20 75zM65 608q0 -32 15 -58.5t41 -42t59 -15.5q32 0 58 15t41.5 41.5t15.5 59.5q0 47 -33.5 81.5t-81.5 34.5t-81.5 -34.5t-33.5 -81.5z M118 536v146q0 11 11 13q18 2 47 2q71 0 71 -53q0 -37 -33 -49l34 -56q3 -5 2 -9t-6 -4h-25q-6 0 -9 6l-33 57h-22v-53q0 -10 -10 -10h-18q-9 0 -9 10zM154 617h18q21 0 30 5.5t9 20.5q0 26 -39 26h-18v-52z" />
<glyph unicode="&#xaf;" horiz-adv-x="365" d="M19 692v34q0 8 5.5 12.5t14.5 4.5h288q8 0 14 -4.5t6 -12.5v-34q0 -8 -6 -12.5t-14 -4.5h-288q-9 0 -14.5 4.5t-5.5 12.5z" />
<glyph unicode="&#xb0;" horiz-adv-x="332" d="M24 608q0 38 19 70.5t52 52t72 19.5t71.5 -19t51.5 -51.5t19 -71.5t-19 -71.5t-51.5 -51.5t-71.5 -19t-72 19t-52 52t-19 71zM79 608q0 -24 12 -44t32.5 -32t43.5 -12t43.5 12t32.5 32t12 44q0 23 -12 43.5t-32.5 32.5t-43.5 12t-43.5 -12t-32.5 -32.5t-12 -43.5z" />
<glyph unicode="&#xb1;" horiz-adv-x="575" d="M60 16v41q0 7 5.5 11.5t14.5 4.5h415q8 0 14 -4.5t6 -11.5v-41q0 -16 -20 -16h-415q-20 0 -20 16zM60 367v48q0 7 5.5 11.5t14.5 4.5h167v168q0 20 16 20h48q7 0 11.5 -6t4.5 -14v-168h168q8 0 14 -4.5t6 -11.5v-48q0 -16 -20 -16h-168v-167q0 -9 -4.5 -14.5t-11.5 -5.5 h-48q-16 0 -16 20v167h-167q-20 0 -20 16z" />
<glyph unicode="&#xb2;" horiz-adv-x="325" d="M33 350v40q0 33 9 60t28.5 50t52.5 46l55 37q24 17 33 30t9 33q0 17 -6 26.5t-20 13.5t-39 4q-37 0 -102 -18q-14 -4 -14 11v25q0 12 10 17q56 25 114 25q39 0 67 -10t43.5 -31.5t15.5 -53.5q0 -36 -18 -64t-58 -56l-51 -36q-26 -19 -40.5 -34t-19 -30.5t-4.5 -37.5h173 q6 0 10.5 -3t4.5 -9v-37q0 -6 -4.5 -9t-10.5 -3h-224q-6 0 -10 4t-4 10z" />
<glyph unicode="&#xb3;" horiz-adv-x="322" d="M34 369v25q0 16 14 11q20 -6 45.5 -9.5t46.5 -3.5q42 0 60.5 14t18.5 45v11q0 59 -58 59h-99q-5 0 -9.5 4t-4.5 9v31q0 13 14 13h97q36 0 48 15.5t12 39.5v6q0 51 -79 51q-46 0 -92 -13q-14 -4 -14 11v25q0 12 10 17q42 20 103 20q67 0 103 -24.5t36 -80.5v-7 q0 -57 -46 -89q45 -29 45 -87v-11q0 -56 -38.5 -87t-103.5 -32q-57 0 -99 20q-10 5 -10 17z" />
<glyph unicode="&#xb4;" horiz-adv-x="339" d="M104 630q0 6 4 10l98 124q8 10 12 12.5t12 2.5h66q11 0 11 -7q0 -4 -4 -8l-113 -126q-9 -10 -12.5 -12.5t-10.5 -2.5h-54q-9 0 -9 7z" />
<glyph unicode="&#xb5;" horiz-adv-x="531" d="M55 -176v706q0 8 5.5 14t13.5 6h50q8 0 13.5 -6t5.5 -14v-329q0 -70 31.5 -101.5t97.5 -31.5q29 0 61.5 4t54.5 10v448q0 8 5.5 14t14.5 6h49q8 0 13.5 -6t5.5 -14v-486q0 -17 -19 -23q-37 -13 -87 -20.5t-98 -7.5q-80 0 -129 29v-198q0 -8 -6.5 -14t-13.5 -6h-48 q-8 0 -14 6t-6 14z" />
<glyph unicode="&#xb6;" horiz-adv-x="600" d="M36 486v34q0 70 30 120.5t83.5 76.5t122.5 26h260q16 0 16 -19v-900q0 -8 -5 -13.5t-12 -5.5h-23q-7 0 -12 6t-5 13v865h-58v-865q0 -7 -5 -13t-12 -6h-23q-7 0 -12 6t-5 13v439h-104q-69 0 -122.5 26t-83.5 76.5t-30 120.5z" />
<glyph unicode="&#xb7;" horiz-adv-x="190" d="M48 345v93q0 8 5.5 13.5t13.5 5.5h56q8 0 13.5 -5.5t5.5 -13.5v-93q0 -9 -5.5 -14.5t-13.5 -5.5h-56q-7 0 -13 6t-6 14z" />
<glyph unicode="&#xb8;" horiz-adv-x="334" d="M41 -181q0 6 4 10l97 124q12 15 25 15h66q11 0 11 -7q0 -4 -4 -8l-113 -126q-9 -10 -12.5 -12.5t-10.5 -2.5h-54q-9 0 -9 7z" />
<glyph unicode="&#xb9;" horiz-adv-x="257" d="M34 650v42q0 7 8 11l72 33q15 7 26 7h32q13 0 13 -12v-386q0 -13 -12 -13h-45q-11 0 -11 13v329l-70 -31q-13 -6 -13 7z" />
<glyph unicode="&#xba;" horiz-adv-x="310" d="M26 566v35q0 70 33.5 107.5t96.5 37.5t96 -37.5t33 -107.5v-35q0 -46 -14.5 -78.5t-43.5 -49.5t-71 -17q-63 0 -96.5 37.5t-33.5 107.5zM86 566q0 -46 17 -69.5t53 -23.5t52 23.5t16 69.5v35q0 47 -16 69.5t-52 22.5t-53 -23t-17 -69v-35z" />
<glyph unicode="&#xbb;" horiz-adv-x="601" d="M37 79q0 7 6 13l178 185l-178 185q-6 6 -6 13q0 9 11 9h66q11 0 21 -10l169 -169q11 -12 11 -28q0 -7 -2.5 -14.5t-8.5 -13.5l-169 -169q-10 -10 -21 -10h-66q-11 0 -11 9zM305 79q0 7 6 13l178 185l-178 185q-6 6 -6 13q0 9 11 9h66q11 0 21 -10l169 -169q11 -11 11 -28 q0 -18 -11 -28l-169 -169q-10 -10 -21 -10h-66q-11 0 -11 9z" />
<glyph unicode="&#xbc;" horiz-adv-x="729" d="M34 650v42q0 7 8 11l72 33q15 7 26 7h32q13 0 13 -12v-386q0 -13 -12 -13h-45q-11 0 -11 13v329l-70 -31q-13 -6 -13 7zM95 6q0 1 4 13l415 704q7 12 12 16t13 4h51q10 0 10 -8q0 -4 -5 -14l-416 -704q-7 -12 -11.5 -16.5t-12.5 -4.5h-49q-11 0 -11 10zM407 115v43 q0 18 6 26l156 220q5 7 14 7h44q14 0 14 -13v-239h38q6 0 10 -3.5t4 -9.5v-31q0 -13 -14 -13h-38v-87q0 -5 -4 -10t-9 -5h-42q-13 0 -13 15v87h-152q-14 0 -14 13zM472 167q-6 -8 3 -8h98v147q0 2 -1.5 2t-2.5 -2z" />
<glyph unicode="&#xbd;" horiz-adv-x="736" d="M34 648v44q0 7 8 11l72 33q15 7 26 7h32q13 0 13 -12v-386q0 -13 -12 -13h-45q-11 0 -11 13v329l-70 -31q-5 -2 -9 -1t-4 6zM95 6q0 1 4 13l415 704q7 12 12 16t13 4h51q10 0 10 -8q0 -4 -5 -14l-416 -704q-7 -12 -11.5 -16.5t-12.5 -4.5h-49q-11 0 -11 10zM444 14v40 q0 50 20.5 86.5t69.5 69.5l55 37q25 17 33.5 30.5t8.5 32.5q0 26 -14.5 35t-50.5 9t-102 -18q-14 -4 -14 11v25q0 12 10 17q55 25 114 25q39 0 67 -10t43.5 -31.5t15.5 -53.5q0 -24 -8 -44.5t-25.5 -39.5t-42.5 -36l-51 -36q-28 -20 -41.5 -35t-18 -29t-4.5 -35v-3h173 q6 0 10.5 -3t4.5 -9v-37q0 -6 -4.5 -9t-10.5 -3h-224q-5 0 -9.5 4t-4.5 10z" />
<glyph unicode="&#xbe;" horiz-adv-x="808" d="M34 369v25q0 16 14 11q20 -6 45.5 -9.5t46.5 -3.5q42 0 60.5 14t18.5 45v11q0 59 -58 59h-99q-5 0 -9.5 4t-4.5 9v31q0 13 14 13h97q36 0 48 15.5t12 39.5v6q0 51 -79 51q-46 0 -92 -13q-14 -4 -14 11v25q0 12 10 17q42 20 103 20q67 0 103 -24.5t36 -80.5v-7 q0 -57 -46 -89q45 -29 45 -87v-11q0 -56 -38.5 -87t-103.5 -32q-57 0 -99 20q-10 5 -10 17zM160 6q0 1 4 13l415 704q7 12 12 16t13 4h51q10 0 10 -8q0 -4 -5 -14l-416 -704q-7 -12 -11.5 -16.5t-12.5 -4.5h-49q-11 0 -11 10zM485 115v43q0 18 6 26l156 220q5 7 14 7h44 q14 0 14 -13v-239h38q6 0 10 -3.5t4 -9.5v-31q0 -13 -14 -13h-38v-87q0 -5 -4 -10t-9 -5h-42q-13 0 -13 15v87h-152q-14 0 -14 13zM550 167q-6 -8 3 -8h98v147q0 2 -1.5 2t-2.5 -2z" />
<glyph unicode="&#xbf;" horiz-adv-x="436" d="M43 -37q0 20 4 37t14.5 36.5t27.5 43t45 54.5l45 51q32 36 42.5 54.5t10.5 48.5v49q0 8 6 13.5t14 5.5h44q8 0 13.5 -5t5.5 -14v-49q0 -33 -6 -56t-19 -43.5t-41 -51.5l-46 -51q-36 -40 -49 -66t-13 -57v-12q0 -27 11 -42.5t33 -22.5t58 -7q45 0 86 9t93 26q19 6 19 -12 v-48q0 -11 -17 -18q-28 -12 -79.5 -24t-101.5 -12q-93 0 -146.5 35t-53.5 116v12zM227 438v93q0 8 5.5 13.5t13.5 5.5h56q8 0 14 -5.5t6 -13.5v-93q0 -8 -5.5 -14t-14.5 -6h-56q-7 0 -13 6t-6 14z" />
<glyph unicode="&#xc0;" horiz-adv-x="623" d="M24 16q0 5 1 7l185 651q12 42 40.5 59t61.5 17q21 0 41 -6.5t36 -23.5t24 -45l185 -652q1 -2 1 -7q0 -16 -17 -16h-59q-14 0 -17 15l-65 230h-259l-64 -230q-1 -6 -7 -10.5t-11 -4.5h-59q-7 0 -12 4.5t-5 11.5zM177 943q0 7 11 7h66q13 0 25 -15l97 -124q4 -4 4 -10 q0 -7 -9 -7h-54q-5 0 -8.5 1.5t-6.5 4.5t-8 9l-113 126q-4 4 -4 8zM201 324h221l-91 329q-5 18 -19 18q-15 0 -20 -18z" />
<glyph unicode="&#xc1;" horiz-adv-x="623" d="M24 16q0 5 1 7l185 651q12 42 40.5 59t61.5 17q21 0 41 -6.5t36 -23.5t24 -45l185 -652q1 -2 1 -7q0 -16 -17 -16h-59q-14 0 -17 15l-65 230h-259l-64 -230q-1 -6 -7 -10.5t-11 -4.5h-59q-7 0 -12 4.5t-5 11.5zM201 324h221l-91 329q-5 18 -19 18q-15 0 -20 -18zM261 801 q0 6 4 10l98 124q8 10 12 12.5t12 2.5h66q11 0 11 -7q0 -4 -4 -8l-113 -126q-9 -10 -12.5 -12.5t-10.5 -2.5h-54q-9 0 -9 7z" />
<glyph unicode="&#xc2;" horiz-adv-x="623" d="M24 16q0 5 1 7l185 651q12 42 40.5 59t61.5 17q21 0 41 -6.5t36 -23.5t24 -45l185 -652q1 -2 1 -7q0 -16 -17 -16h-59q-14 0 -17 15l-65 230h-259l-64 -230q-1 -6 -7 -10.5t-11 -4.5h-59q-7 0 -12 4.5t-5 11.5zM150 801q0 6 4 10l96 124q8 10 12 12.5t12 2.5h85 q13 0 25 -15l95 -124q4 -4 4 -10q0 -7 -9 -7h-52q-7 0 -10.5 2.5t-12.5 12.5l-82 97l-83 -97q-8 -9 -12 -12t-11 -3h-52q-9 0 -9 7zM201 324h221l-91 329q-5 18 -19 18q-15 0 -20 -18z" />
<glyph unicode="&#xc3;" horiz-adv-x="623" d="M24 16q0 5 1 7l185 651q12 42 40.5 59t61.5 17q21 0 41 -6.5t36 -23.5t24 -45l185 -652q1 -2 1 -7q0 -16 -17 -16h-59q-14 0 -17 15l-65 230h-259l-64 -230q-1 -6 -7 -10.5t-11 -4.5h-59q-7 0 -12 4.5t-5 11.5zM137 814v21q0 53 25 81t70 28q29 0 60 -24l71 -56 q10 -7 19 -10.5t16 -3.5q16 0 23 10t7 34v23q0 7 5 12t12 5h31q6 0 11 -5.5t5 -11.5v-23q0 -53 -22.5 -79t-71.5 -26q-37 0 -64 21l-61 49q-17 14 -24.5 18t-16.5 4q-17 0 -24 -11.5t-7 -34.5v-21q0 -7 -5 -12t-12 -5h-31q-7 0 -11.5 5t-4.5 12zM201 324h221l-91 329 q-5 18 -19 18q-15 0 -20 -18z" />
<glyph unicode="&#xc4;" horiz-adv-x="623" d="M24 16q0 5 1 7l185 651q12 42 40.5 59t61.5 17q21 0 41 -6.5t36 -23.5t24 -45l185 -652q1 -2 1 -7q0 -16 -17 -16h-59q-14 0 -17 15l-65 230h-259l-64 -230q-1 -6 -7 -10.5t-11 -4.5h-59q-7 0 -12 4.5t-5 11.5zM191 827v81q0 8 6.5 14t13.5 6h39q8 0 14 -6t6 -14v-81 q0 -8 -6 -13.5t-14 -5.5h-39q-7 0 -13.5 5.5t-6.5 13.5zM201 324h221l-91 329q-5 18 -19 18q-15 0 -20 -18zM366 827v81q0 8 6 14t14 6h39q8 0 14 -6.5t6 -13.5v-81q0 -8 -6 -13.5t-14 -5.5h-39q-8 0 -14 5.5t-6 13.5z" />
<glyph unicode="&#xc5;" horiz-adv-x="623" d="M24 16q0 5 1 7l185 651q12 42 40.5 59t61.5 17q21 0 41 -6.5t36 -23.5t24 -45l185 -652q1 -2 1 -7q0 -16 -17 -16h-59q-14 0 -17 15l-65 230h-259l-64 -230q-1 -6 -7 -10.5t-11 -4.5h-59q-7 0 -12 4.5t-5 11.5zM201 324h221l-91 329q-5 18 -19 18q-15 0 -20 -18zM209 878 q0 28 13.5 51t37 37t51.5 14t51 -13.5t36.5 -37t13.5 -51.5q0 -41 -30 -71t-71 -30q-28 0 -51.5 13.5t-37 36.5t-13.5 51zM259 879q0 -21 15 -37t37 -16t37.5 15.5t15.5 37.5t-16 37t-37 15q-22 0 -37 -15t-15 -37z" />
<glyph unicode="&#xc6;" horiz-adv-x="845" d="M16 16q0 5 1 7l185 645q23 75 102 75h487q4 0 7 -5t3 -9v-53q0 -12 -11 -12h-286v-239h277q9 0 14.5 -5.5t5.5 -14.5v-38q0 -9 -6 -14.5t-14 -5.5h-277v-168q0 -40 8.5 -62t35 -32t79.5 -10h163q11 0 11 -12v-49q0 -13 -10 -14q-65 -7 -165 -7q-107 0 -160 44t-53 142v66 h-239l-64 -230q-4 -15 -18 -15h-59q-7 0 -12 4.5t-5 11.5zM193 324h220v340h-109q-15 0 -20 -17z" />
<glyph unicode="&#xc7;" d="M48 302v1v138q0 167 75.5 238t191.5 71q31 0 63.5 -7t60 -16.5t43.5 -18.5q10 -6 10 -16v-49q0 -6 -5 -9t-12 0q-26 10 -75.5 22t-84.5 12q-176 0 -176 -227v-138q0 -83 22 -133.5t61 -72.5t93 -22q61 0 160 34q8 3 12.5 0.5t4.5 -9.5v-49q0 -10 -10 -16 q-16 -9 -43.5 -18.5t-60 -16.5t-63.5 -7q-116 0 -191.5 71t-75.5 238zM166 -181q0 4 4 10l97 124q12 15 25 15h66q11 0 11 -7q0 -4 -4 -8l-113 -126q-9 -10 -12.5 -12.5t-10.5 -2.5h-54q-9 0 -9 7z" />
<glyph unicode="&#xc8;" d="M63 179v385q0 97 52.5 141.5t160.5 44.5q50 0 108 -1.5t87 -4.5q10 -1 10 -14v-50q0 -12 -11 -12h-193q-53 0 -79.5 -10t-35 -32t-8.5 -62v-139h307q9 0 14.5 -5.5t5.5 -14.5v-38q0 -9 -6 -14.5t-14 -5.5h-307v-168q0 -40 8.5 -62t35 -32t79.5 -10h193q11 0 11 -12v-51 q0 -12 -10 -14q-47 -5 -195 -5q-71 0 -118 19t-71 60.5t-24 106.5zM142 942q0 7 11 7h66q13 0 25 -15l97 -124q4 -4 4 -10q0 -7 -9 -7h-54q-5 0 -8.5 1.5t-6.5 4.5t-8 9l-113 126q-4 4 -4 8z" />
<glyph unicode="&#xc9;" d="M63 179v385q0 97 52.5 141.5t160.5 44.5q50 0 108 -1.5t87 -4.5q10 -1 10 -14v-50q0 -12 -11 -12h-193q-53 0 -79.5 -10t-35 -32t-8.5 -62v-139h307q9 0 14.5 -5.5t5.5 -14.5v-38q0 -9 -6 -14.5t-14 -5.5h-307v-168q0 -40 8.5 -62t35 -32t79.5 -10h193q11 0 11 -12v-51 q0 -12 -10 -14q-47 -5 -195 -5q-71 0 -118 19t-71 60.5t-24 106.5zM218 801q0 6 4 10l98 124q8 10 12 12.5t12 2.5h66q11 0 11 -7q0 -4 -4 -8l-113 -126q-9 -10 -12.5 -12.5t-10.5 -2.5h-54q-9 0 -9 7z" />
<glyph unicode="&#xca;" d="M63 179v385q0 97 52.5 141.5t160.5 44.5q50 0 108 -1.5t87 -4.5q10 -1 10 -14v-50q0 -12 -11 -12h-193q-53 0 -79.5 -10t-35 -32t-8.5 -62v-139h307q9 0 14.5 -5.5t5.5 -14.5v-38q0 -9 -6 -14.5t-14 -5.5h-307v-168q0 -40 8.5 -62t35 -32t79.5 -10h193q11 0 11 -12v-51 q0 -12 -10 -14q-47 -5 -195 -5q-71 0 -118 19t-71 60.5t-24 106.5zM108 801q0 6 4 10l96 124q8 10 12 12.5t12 2.5h85q13 0 25 -15l95 -124q4 -4 4 -10q0 -7 -9 -7h-52q-7 0 -10.5 2.5t-12.5 12.5l-82 97l-83 -97q-8 -9 -12 -12t-11 -3h-52q-9 0 -9 7z" />
<glyph unicode="&#xcb;" d="M63 179v385q0 97 52.5 141.5t160.5 44.5q50 0 108 -1.5t87 -4.5q10 -1 10 -14v-50q0 -12 -11 -12h-193q-53 0 -79.5 -10t-35 -32t-8.5 -62v-139h307q9 0 14.5 -5.5t5.5 -14.5v-38q0 -9 -6 -14.5t-14 -5.5h-307v-168q0 -40 8.5 -62t35 -32t79.5 -10h193q11 0 11 -12v-51 q0 -12 -10 -14q-47 -5 -195 -5q-71 0 -118 19t-71 60.5t-24 106.5zM155 829v81q0 8 6.5 14t13.5 6h39q8 0 14 -6t6 -14v-81q0 -8 -6 -13.5t-14 -5.5h-39q-7 0 -13.5 5.5t-6.5 13.5zM330 829v81q0 8 6 14t14 6h39q8 0 14 -6.5t6 -13.5v-81q0 -8 -6 -13.5t-14 -5.5h-39 q-8 0 -14 5.5t-6 13.5z" />
<glyph unicode="&#xcc;" horiz-adv-x="233" d="M-20 943q0 7 11 7h66q13 0 25 -15l97 -124q4 -4 4 -10q0 -7 -9 -7h-54q-5 0 -8.5 1.5t-6.5 4.5t-8 9l-113 126q-4 4 -4 8zM71 20v704q0 7 5.5 13t12.5 6h55q7 0 12.5 -5.5t5.5 -13.5v-704q0 -8 -5 -14t-13 -6h-55q-7 0 -12.5 5.5t-5.5 14.5z" />
<glyph unicode="&#xcd;" horiz-adv-x="233" d="M54 801q0 6 4 10l98 124q8 10 12 12.5t12 2.5h66q11 0 11 -7q0 -4 -4 -8l-113 -126q-9 -10 -12.5 -12.5t-10.5 -2.5h-54q-9 0 -9 7zM71 20v704q0 7 5.5 13t12.5 6h55q7 0 12.5 -5.5t5.5 -13.5v-704q0 -8 -5 -14t-13 -6h-55q-7 0 -12.5 5.5t-5.5 14.5z" />
<glyph unicode="&#xce;" horiz-adv-x="233" d="M-52 801q0 6 4 10l96 124q8 10 12 12.5t12 2.5h85q13 0 25 -15l95 -124q4 -4 4 -10q0 -7 -9 -7h-52q-7 0 -10.5 2.5t-12.5 12.5l-82 97l-83 -97q-8 -9 -12 -12t-11 -3h-52q-9 0 -9 7zM71 20v704q0 7 5.5 13t12.5 6h55q7 0 12.5 -5.5t5.5 -13.5v-704q0 -8 -5 -14t-13 -6 h-55q-7 0 -12.5 5.5t-5.5 14.5z" />
<glyph unicode="&#xcf;" horiz-adv-x="233" d="M-8 828v81q0 8 6.5 14t13.5 6h39q8 0 14 -6t6 -14v-81q0 -8 -6 -13.5t-14 -5.5h-39q-7 0 -13.5 5.5t-6.5 13.5zM71 20v704q0 7 5.5 13t12.5 6h55q7 0 12.5 -5.5t5.5 -13.5v-704q0 -8 -5 -14t-13 -6h-55q-7 0 -12.5 5.5t-5.5 14.5zM167 828v81q0 8 6 14t14 6h39 q8 0 14 -6.5t6 -13.5v-81q0 -8 -6 -13.5t-14 -5.5h-39q-8 0 -14 5.5t-6 13.5z" />
<glyph unicode="&#xd0;" horiz-adv-x="626" d="M16 367v38q0 8 5.5 14t14.5 6h38v290q0 21 21 25q21 3 42 5t61.5 3.5t78.5 1.5q95 0 162.5 -33t104 -103.5t36.5 -174.5v-135q0 -157 -80 -234t-223 -77q-38 0 -78.5 2t-61.5 3.5t-42 4.5t-21 25v319h-38q-8 0 -14 6t-6 14zM166 73q32 -2 111 -2q99 0 155.5 53t56.5 180 v135q0 86 -26.5 138t-74 73.5t-111.5 21.5q-61 0 -111 -3v-244h103q8 0 14 -6t6 -14v-38q0 -8 -6.5 -14t-13.5 -6h-103v-274z" />
<glyph unicode="&#xd1;" horiz-adv-x="650" d="M63 12v703q0 12 8.5 20t20.5 8h55q20 0 27.5 -4t13.5 -16l307 -584l2 -3q1 0 1 3v585q0 8 5 13.5t13 5.5h53q8 0 13 -5.5t5 -13.5v-695q0 -12 -9 -20.5t-20 -8.5h-62q-24 0 -32 16l-309 587q-2 3 -3 3t-1 -3v-584q0 -8 -5 -13.5t-13 -5.5h-52q-18 0 -18 12zM138 812v21 q0 53 25 81t70 28q29 0 60 -24l71 -56q10 -7 19 -10.5t16 -3.5q16 0 23 10t7 34v23q0 7 5 12t12 5h31q6 0 11 -5.5t5 -11.5v-23q0 -53 -22.5 -79t-71.5 -26q-37 0 -64 21l-61 49q-17 14 -24.5 18t-16.5 4q-17 0 -24 -11.5t-7 -34.5v-21q0 -7 -5 -12t-12 -5h-31q-7 0 -11.5 5 t-4.5 12z" />
<glyph unicode="&#xd2;" horiz-adv-x="637" d="M48 307v129q0 81 20 141t56.5 98.5t85.5 56.5t109 18t109 -18t85 -56.5t56 -98t20 -141.5v-129q0 -81 -19.5 -141t-55.5 -98.5t-86 -56.5t-109 -18t-108.5 18t-86.5 56.5t-56.5 99t-19.5 140.5zM140 307q0 -81 21.5 -133t61 -75.5t96.5 -23.5q178 0 178 232v129 q0 61 -12.5 106.5t-35 72.5t-55 40t-75.5 13q-179 0 -179 -232v-129zM182 943q0 7 11 7h66q13 0 25 -15l97 -124q4 -4 4 -10q0 -7 -9 -7h-54q-5 0 -8.5 1.5t-6.5 4.5t-8 9l-113 126q-4 4 -4 8z" />
<glyph unicode="&#xd3;" horiz-adv-x="637" d="M48 307v129q0 81 20 141t56.5 98.5t85.5 56.5t109 18t109 -18t85 -56.5t56 -98t20 -141.5v-129q0 -81 -19.5 -141t-55.5 -98.5t-86 -56.5t-109 -18t-108.5 18t-86.5 56.5t-56.5 99t-19.5 140.5zM140 307q0 -81 21.5 -133t61 -75.5t96.5 -23.5q178 0 178 232v129 q0 61 -12.5 106.5t-35 72.5t-55 40t-75.5 13q-179 0 -179 -232v-129zM242 801q0 6 4 10l98 124q8 10 12 12.5t12 2.5h66q11 0 11 -7q0 -4 -4 -8l-113 -126q-9 -10 -12.5 -12.5t-10.5 -2.5h-54q-9 0 -9 7z" />
<glyph unicode="&#xd4;" horiz-adv-x="637" d="M48 307v129q0 81 20 141t56.5 98.5t85.5 56.5t109 18t109 -18t85 -56.5t56 -98t20 -141.5v-129q0 -81 -19.5 -141t-55.5 -98.5t-86 -56.5t-109 -18t-108.5 18t-86.5 56.5t-56.5 99t-19.5 140.5zM140 307q0 -81 21.5 -133t61 -75.5t96.5 -23.5q178 0 178 232v129 q0 61 -12.5 106.5t-35 72.5t-55 40t-75.5 13q-179 0 -179 -232v-129zM152 802q0 6 4 10l96 124q8 10 12 12.5t12 2.5h85q13 0 25 -15l95 -124q4 -4 4 -10q0 -7 -9 -7h-52q-7 0 -10.5 2.5t-12.5 12.5l-82 97l-83 -97q-8 -9 -12 -12t-11 -3h-52q-9 0 -9 7z" />
<glyph unicode="&#xd5;" horiz-adv-x="637" d="M48 307v129q0 81 20 141t56.5 98.5t85.5 56.5t109 18t109 -18t85 -56.5t56 -98t20 -141.5v-129q0 -81 -19.5 -141t-55.5 -98.5t-86 -56.5t-109 -18t-108.5 18t-86.5 56.5t-56.5 99t-19.5 140.5zM140 307q0 -81 21.5 -133t61 -75.5t96.5 -23.5q178 0 178 232v129 q0 61 -12.5 106.5t-35 72.5t-55 40t-75.5 13q-179 0 -179 -232v-129zM144 814v21q0 53 25 81t70 28q29 0 60 -24l71 -56q10 -7 19 -10.5t16 -3.5q16 0 23 10t7 34v23q0 7 5 12t12 5h31q6 0 11 -5.5t5 -11.5v-23q0 -53 -22.5 -79t-71.5 -26q-37 0 -64 21l-61 49 q-17 14 -24.5 18t-16.5 4q-17 0 -24 -11.5t-7 -34.5v-21q0 -7 -5 -12t-12 -5h-31q-7 0 -11.5 5t-4.5 12z" />
<glyph unicode="&#xd6;" horiz-adv-x="637" d="M48 307v129q0 81 20 141t56.5 98.5t85.5 56.5t109 18t109 -18t85 -56.5t56 -98t20 -141.5v-129q0 -81 -19.5 -141t-55.5 -98.5t-86 -56.5t-109 -18t-108.5 18t-86.5 56.5t-56.5 99t-19.5 140.5zM140 307q0 -81 21.5 -133t61 -75.5t96.5 -23.5q178 0 178 232v129 q0 61 -12.5 106.5t-35 72.5t-55 40t-75.5 13q-179 0 -179 -232v-129zM192 829v81q0 8 6.5 14t13.5 6h39q8 0 14 -6t6 -14v-81q0 -8 -6 -13.5t-14 -5.5h-39q-7 0 -13.5 5.5t-6.5 13.5zM367 829v81q0 8 6 14t14 6h39q8 0 14 -6.5t6 -13.5v-81q0 -8 -6 -13.5t-14 -5.5h-39 q-8 0 -14 5.5t-6 13.5z" />
<glyph unicode="&#xd7;" horiz-adv-x="562" d="M84 247q0 6 7 15l128 129l-126 130q-7 9 -7 15t5 11l33 33q5 5 11 5q7 0 15 -7l126 -130l126 130q9 7 15 7q5 0 11 -5l33 -33q5 -5 5 -11t-7 -15l-126 -130l128 -129q7 -9 7 -15t-5 -11l-33 -33q-6 -5 -11 -5q-6 0 -15 7l-128 129l-128 -129q-8 -7 -15 -7q-6 0 -11 5 l-33 33q-5 5 -5 11z" />
<glyph unicode="&#xd8;" horiz-adv-x="637" d="M16 4q0 3 3 8l72 100q-43 75 -43 195v129q0 81 20 141t56.5 98.5t85.5 56.5t109 18q116 0 184 -64l29 41q14 19 26 19h52q11 0 11 -11q0 -4 -3 -8l-71 -98q42 -73 42 -193v-129q0 -81 -19.5 -141t-55.5 -98.5t-86 -56.5t-109 -18q-55 0 -102 16t-81 47l-31 -44 q-14 -19 -25 -19h-53q-11 0 -11 11zM140 307q0 -59 13 -108l297 414q-45 55 -131 55q-179 0 -179 -232v-129zM188 128q44 -53 131 -53q43 0 75.5 13.5t55 40t35 72t12.5 106.5v129q0 64 -12 106z" />
<glyph unicode="&#xd9;" horiz-adv-x="632" d="M60 270v454q0 8 5.5 13.5t13.5 5.5h54q8 0 13.5 -5t5.5 -14v-454q0 -101 37 -150t127 -49q60 0 96.5 22.5t52 66t15.5 110.5v454q0 8 5.5 13.5t13.5 5.5h54q8 0 13.5 -5.5t5.5 -13.5v-454q0 -71 -17 -123t-50.5 -86.5t-80.5 -51t-108 -16.5q-62 0 -108.5 16.5t-79.5 51 t-50.5 86.5t-17.5 123zM171 943q0 7 11 7h66q13 0 25 -15l97 -124q4 -4 4 -10q0 -7 -9 -7h-54q-5 0 -8.5 1.5t-6.5 4.5t-8 9l-113 126q-4 4 -4 8z" />
<glyph unicode="&#xda;" horiz-adv-x="632" d="M60 270v454q0 8 5.5 13.5t13.5 5.5h54q8 0 13.5 -5t5.5 -14v-454q0 -101 37 -150t127 -49q60 0 96.5 22.5t52 66t15.5 110.5v454q0 8 5.5 13.5t13.5 5.5h54q8 0 13.5 -5.5t5.5 -13.5v-454q0 -71 -17 -123t-50.5 -86.5t-80.5 -51t-108 -16.5q-62 0 -108.5 16.5t-79.5 51 t-50.5 86.5t-17.5 123zM261 801q0 6 4 10l98 124q8 10 12 12.5t12 2.5h66q11 0 11 -7q0 -4 -4 -8l-113 -126q-9 -10 -12.5 -12.5t-10.5 -2.5h-54q-9 0 -9 7z" />
<glyph unicode="&#xdb;" horiz-adv-x="632" d="M60 270v454q0 8 5.5 13.5t13.5 5.5h54q8 0 13.5 -5t5.5 -14v-454q0 -101 37 -150t127 -49q60 0 96.5 22.5t52 66t15.5 110.5v454q0 8 5.5 13.5t13.5 5.5h54q8 0 13.5 -5.5t5.5 -13.5v-454q0 -71 -17 -123t-50.5 -86.5t-80.5 -51t-108 -16.5q-62 0 -108.5 16.5t-79.5 51 t-50.5 86.5t-17.5 123zM146 801q0 6 4 10l96 124q8 10 12 12.5t12 2.5h85q13 0 25 -15l95 -124q4 -4 4 -10q0 -7 -9 -7h-52q-7 0 -10.5 2.5t-12.5 12.5l-82 97l-83 -97q-8 -9 -12 -12t-11 -3h-52q-9 0 -9 7z" />
<glyph unicode="&#xdc;" horiz-adv-x="632" d="M60 270v454q0 8 5.5 13.5t13.5 5.5h54q8 0 13.5 -5t5.5 -14v-454q0 -101 37 -150t127 -49q60 0 96.5 22.5t52 66t15.5 110.5v454q0 8 5.5 13.5t13.5 5.5h54q8 0 13.5 -5.5t5.5 -13.5v-454q0 -71 -17 -123t-50.5 -86.5t-80.5 -51t-108 -16.5q-62 0 -108.5 16.5t-79.5 51 t-50.5 86.5t-17.5 123zM187 829v81q0 8 6.5 14t13.5 6h39q8 0 14 -6t6 -14v-81q0 -8 -6 -13.5t-14 -5.5h-39q-7 0 -13.5 5.5t-6.5 13.5zM362 829v81q0 8 6 14t14 6h39q8 0 14 -6.5t6 -13.5v-81q0 -8 -6 -13.5t-14 -5.5h-39q-8 0 -14 5.5t-6 13.5z" />
<glyph unicode="&#xdd;" horiz-adv-x="570" d="M28 729q0 6 4.5 10t12.5 4h61q5 0 10.5 -4.5t7.5 -9.5l138 -324q11 -26 23 -26q11 0 23 26l139 324q7 14 17 14h61q8 0 12.5 -4t4.5 -10q0 -4 -3 -11l-155 -348q-23 -53 -54 -66v-284q0 -8 -5.5 -14t-12.5 -6h-55q-7 0 -12.5 6t-5.5 14v284q-30 11 -54 66l-154 348 q-3 7 -3 11zM228 801q0 6 4 10l98 124q8 10 12 12.5t12 2.5h66q11 0 11 -7q0 -4 -4 -8l-113 -126q-9 -10 -12.5 -12.5t-10.5 -2.5h-54q-9 0 -9 7z" />
<glyph unicode="&#xde;" horiz-adv-x="569" d="M63 20v704q0 8 5 13.5t13 5.5h55q8 0 12.5 -5.5t4.5 -13.5v-69q12 0 28 1t35 1.5t34 0.5q283 0 283 -218v-14q0 -120 -75 -173t-206 -53q-57 0 -99 3v-183q0 -8 -4.5 -14t-11.5 -6h-56q-8 0 -13 6t-5 14zM153 281q69 -3 99 -3q98 0 144 34.5t46 113.5v14 q0 76 -46.5 107.5t-143.5 31.5q-77 0 -99 -2v-296z" />
<glyph unicode="&#xdf;" horiz-adv-x="558" d="M52 21v493q0 63 15.5 108t45.5 76t72 45.5t94 14.5q66 0 115 -21.5t76.5 -66t27.5 -110.5v-12q0 -52 -30 -93t-75 -61q54 -19 87.5 -62.5t33.5 -102.5v-14q0 -75 -32 -125t-85 -73.5t-120 -23.5q-18 0 -48 3q-20 2 -20 19v41q0 11 11 11q15 0 24 -0.5t19 -0.5 q78 0 120 33t42 116v14q0 37 -17.5 66t-52.5 45.5t-85 16.5h-37q-7 0 -13.5 6.5t-6.5 13.5v29q0 8 6 14t14 6h37q48 0 79.5 16.5t46 44.5t14.5 61v12q0 57 -32 89t-99 32q-70 0 -104 -40t-34 -127v-493q0 -8 -5 -14.5t-13 -6.5h-53q-8 0 -13 6.5t-5 14.5z" />
<glyph unicode="&#xe0;" horiz-adv-x="497" d="M39 158v9q0 56 23.5 91.5t76.5 53t141 17.5h74v40q0 63 -24 87t-83 24q-45 0 -77.5 -6t-75.5 -19q-10 -3 -16.5 0.5t-6.5 12.5v39q0 12 14 18q23 10 68 21t94 11q195 0 195 -188v-331q0 -18 -15 -22q-39 -11 -79 -17t-90 -6q-117 0 -168 39.5t-51 125.5zM112 772 q0 7 11 7h66q13 0 25 -15l97 -124q4 -4 4 -10q0 -7 -9 -7h-54q-5 0 -8.5 1.5t-6.5 4.5t-8 9l-113 126q-4 4 -4 8zM128 159q0 -35 11 -56t39.5 -31t79.5 -10q20 0 38.5 1t33.5 3t24 5v194h-74q-48 0 -76 -5t-45 -17t-24 -29.5t-7 -45.5v-9z" />
<glyph unicode="&#xe1;" horiz-adv-x="497" d="M39 158v9q0 56 23.5 91.5t76.5 53t141 17.5h74v40q0 63 -24 87t-83 24q-45 0 -77.5 -6t-75.5 -19q-10 -3 -16.5 0.5t-6.5 12.5v39q0 12 14 18q23 10 68 21t94 11q195 0 195 -188v-331q0 -18 -15 -22q-39 -11 -79 -17t-90 -6q-117 0 -168 39.5t-51 125.5zM128 159 q0 -35 11 -56t39.5 -31t79.5 -10q20 0 38.5 1t33.5 3t24 5v194h-74q-48 0 -76 -5t-45 -17t-24 -29.5t-7 -45.5v-9zM200 630q0 6 4 10l98 124q8 10 12 12.5t12 2.5h66q11 0 11 -7q0 -4 -4 -8l-113 -126q-9 -10 -12.5 -12.5t-10.5 -2.5h-54q-9 0 -9 7z" />
<glyph unicode="&#xe2;" horiz-adv-x="497" d="M39 158v9q0 56 23.5 91.5t76.5 53t141 17.5h74v40q0 63 -24 87t-83 24q-45 0 -77.5 -6t-75.5 -19q-10 -3 -16.5 0.5t-6.5 12.5v39q0 12 14 18q23 10 68 21t94 11q195 0 195 -188v-331q0 -18 -15 -22q-39 -11 -79 -17t-90 -6q-117 0 -168 39.5t-51 125.5zM83 630q0 6 4 10 l96 124q8 10 12 12.5t12 2.5h85q13 0 25 -15l95 -124q4 -4 4 -10q0 -7 -9 -7h-52q-7 0 -10.5 2.5t-12.5 12.5l-82 97l-83 -97q-8 -9 -12 -12t-11 -3h-52q-9 0 -9 7zM128 159q0 -35 11 -56t39.5 -31t79.5 -10q20 0 38.5 1t33.5 3t24 5v194h-74q-48 0 -76 -5t-45 -17 t-24 -29.5t-7 -45.5v-9z" />
<glyph unicode="&#xe3;" horiz-adv-x="497" d="M39 158v9q0 56 23.5 91.5t76.5 53t141 17.5h74v40q0 63 -24 87t-83 24q-45 0 -77.5 -6t-75.5 -19q-10 -3 -16.5 0.5t-6.5 12.5v39q0 12 14 18q23 10 68 21t94 11q195 0 195 -188v-331q0 -18 -15 -22q-39 -11 -79 -17t-90 -6q-117 0 -168 39.5t-51 125.5zM82 651v21 q0 53 25 81t70 28q29 0 60 -24l71 -56q10 -7 19 -10.5t16 -3.5q16 0 23 10t7 34v23q0 7 5 12t12 5h31q6 0 11 -5.5t5 -11.5v-23q0 -53 -22.5 -79t-71.5 -26q-37 0 -64 21l-61 49q-17 14 -24.5 18t-16.5 4q-17 0 -24 -11.5t-7 -34.5v-21q0 -7 -5 -12t-12 -5h-31q-7 0 -11.5 5 t-4.5 12zM128 159q0 -35 11 -56t39.5 -31t79.5 -10q20 0 38.5 1t33.5 3t24 5v194h-74q-48 0 -76 -5t-45 -17t-24 -29.5t-7 -45.5v-9z" />
<glyph unicode="&#xe4;" horiz-adv-x="497" d="M39 158v9q0 56 23.5 91.5t76.5 53t141 17.5h74v40q0 63 -24 87t-83 24q-45 0 -77.5 -6t-75.5 -19q-10 -3 -16.5 0.5t-6.5 12.5v39q0 12 14 18q23 10 68 21t94 11q195 0 195 -188v-331q0 -18 -15 -22q-39 -11 -79 -17t-90 -6q-117 0 -168 39.5t-51 125.5zM125 660v81 q0 8 6.5 14t13.5 6h39q8 0 14 -6t6 -14v-81q0 -8 -6 -13.5t-14 -5.5h-39q-7 0 -13.5 5.5t-6.5 13.5zM128 159q0 -35 11 -56t39.5 -31t79.5 -10q20 0 38.5 1t33.5 3t24 5v194h-74q-48 0 -76 -5t-45 -17t-24 -29.5t-7 -45.5v-9zM300 660v81q0 8 6 14t14 6h39q8 0 14 -6.5 t6 -13.5v-81q0 -8 -6 -13.5t-14 -5.5h-39q-8 0 -14 5.5t-6 13.5z" />
<glyph unicode="&#xe5;" horiz-adv-x="497" d="M39 158v9q0 56 23.5 91.5t76.5 53t141 17.5h74v40q0 63 -24 87t-83 24q-45 0 -77.5 -6t-75.5 -19q-10 -3 -16.5 0.5t-6.5 12.5v39q0 12 14 18q23 10 68 21t94 11q195 0 195 -188v-331q0 -18 -15 -22q-39 -11 -79 -17t-90 -6q-117 0 -168 39.5t-51 125.5zM128 159 q0 -35 11 -56t39.5 -31t79.5 -10q20 0 38.5 1t33.5 3t24 5v194h-74q-48 0 -76 -5t-45 -17t-24 -29.5t-7 -45.5v-9zM146 703q0 28 13.5 51t37 37t51.5 14t51 -13.5t36.5 -37t13.5 -51.5q0 -41 -30 -71t-71 -30q-28 0 -51.5 13.5t-37 36.5t-13.5 51zM196 704q0 -21 15 -37 t37 -16t37.5 15.5t15.5 37.5t-16 37t-37 15q-22 0 -37 -15t-15 -37z" />
<glyph unicode="&#xe6;" horiz-adv-x="838" d="M39 158v9q0 56 23.5 91.5t76.5 53t141 17.5h74v40q0 63 -24 87t-83 24q-45 0 -77.5 -6t-75.5 -19q-10 -3 -16.5 0.5t-6.5 12.5v39q0 12 14 18q23 10 68 21t94 11q117 0 163 -66q58 66 166 66q71 0 120.5 -28.5t74.5 -81.5t25 -124v-54q0 -22 -19 -22h-335v-14 q0 -87 34 -125t105 -38q33 0 65 6.5t62.5 17t49.5 17.5q11 5 17 0.5t6 -13.5v-41q0 -10 -14 -18q-87 -46 -186 -46q-111 0 -169 62q-22 -20 -65.5 -41t-104.5 -21q-63 0 -108 17.5t-70 54.5t-25 93zM128 159q0 -96 114 -96q59 0 112 28v174h-74q-48 0 -76 -5t-45 -17 t-24 -29.5t-7 -45.5v-9zM442 314h265v9q0 55 -14.5 90.5t-43 51t-73.5 15.5q-131 0 -134 -149v-17z" />
<glyph unicode="&#xe7;" horiz-adv-x="434" d="M40 236v78q0 76 23.5 130.5t72 83.5t117.5 29q41 0 77 -10t54 -20q9 -5 11.5 -8.5t2.5 -12.5v-36q0 -21 -23 -13q-65 23 -122 23q-125 0 -125 -166v-78q0 -83 32 -124.5t93 -41.5q57 0 122 23q23 8 23 -13v-36q0 -9 -3 -13t-11 -8q-19 -10 -54.5 -20t-76.5 -10 q-51 0 -91.5 17t-68 48.5t-40.5 75.5t-13 102zM109 -181q0 6 4 10l97 124q9 10 13 12.5t12 2.5h66q11 0 11 -7q0 -4 -4 -8l-113 -126q-9 -10 -12.5 -12.5t-10.5 -2.5h-54q-9 0 -9 7z" />
<glyph unicode="&#xe8;" horiz-adv-x="524" d="M40 233v90q0 109 58.5 171.5t163.5 62.5q71 0 120.5 -28.5t74.5 -81.5t25 -124v-54q0 -22 -19 -22h-335v-14q0 -87 34 -125t105 -38q33 0 65 6.5t62.5 17t49.5 17.5q11 5 17 0.5t6 -13.5v-41q0 -10 -14 -18q-87 -46 -186 -46q-62 0 -113 22.5t-82.5 76t-31.5 141.5z M128 314h265v9q0 55 -14.5 90.5t-43 51t-73.5 15.5q-134 0 -134 -157v-9zM145 772q0 7 11 7h66q13 0 25 -15l97 -124q4 -4 4 -10q0 -7 -9 -7h-54q-5 0 -8.5 1.5t-6.5 4.5t-8 9l-113 126q-4 4 -4 8z" />
<glyph unicode="&#xe9;" horiz-adv-x="524" d="M40 233v90q0 109 58.5 171.5t163.5 62.5q71 0 120.5 -28.5t74.5 -81.5t25 -124v-54q0 -22 -19 -22h-335v-14q0 -87 34 -125t105 -38q33 0 65 6.5t62.5 17t49.5 17.5q11 5 17 0.5t6 -13.5v-41q0 -10 -14 -18q-87 -46 -186 -46q-62 0 -113 22.5t-82.5 76t-31.5 141.5z M128 314h265v9q0 55 -14.5 90.5t-43 51t-73.5 15.5q-134 0 -134 -157v-9zM221 630q0 6 4 10l98 124q8 10 12 12.5t12 2.5h66q11 0 11 -7q0 -4 -4 -8l-113 -126q-9 -10 -12.5 -12.5t-10.5 -2.5h-54q-9 0 -9 7z" />
<glyph unicode="&#xea;" horiz-adv-x="524" d="M40 233v90q0 109 58.5 171.5t163.5 62.5q71 0 120.5 -28.5t74.5 -81.5t25 -124v-54q0 -22 -19 -22h-335v-14q0 -87 34 -125t105 -38q33 0 65 6.5t62.5 17t49.5 17.5q11 5 17 0.5t6 -13.5v-41q0 -10 -14 -18q-87 -46 -186 -46q-62 0 -113 22.5t-82.5 76t-31.5 141.5z M96 630q0 6 4 10l96 124q8 10 12 12.5t12 2.5h85q13 0 25 -15l95 -124q4 -4 4 -10q0 -7 -9 -7h-52q-7 0 -10.5 2.5t-12.5 12.5l-82 97l-83 -97q-8 -9 -12 -12t-11 -3h-52q-9 0 -9 7zM128 314h265v9q0 55 -14.5 90.5t-43 51t-73.5 15.5q-134 0 -134 -157v-9z" />
<glyph unicode="&#xeb;" horiz-adv-x="524" d="M40 233v90q0 109 58.5 171.5t163.5 62.5q71 0 120.5 -28.5t74.5 -81.5t25 -124v-54q0 -22 -19 -22h-335v-14q0 -87 34 -125t105 -38q33 0 65 6.5t62.5 17t49.5 17.5q11 5 17 0.5t6 -13.5v-41q0 -10 -14 -18q-87 -46 -186 -46q-62 0 -113 22.5t-82.5 76t-31.5 141.5z M128 314h265v9q0 55 -14.5 90.5t-43 51t-73.5 15.5q-134 0 -134 -157v-9zM139 660v81q0 8 6.5 14t13.5 6h39q8 0 14 -6t6 -14v-81q0 -8 -6 -13.5t-14 -5.5h-39q-7 0 -13.5 5.5t-6.5 13.5zM314 660v81q0 8 6 14t14 6h39q8 0 14 -6.5t6 -13.5v-81q0 -8 -6 -13.5t-14 -5.5h-39 q-8 0 -14 5.5t-6 13.5z" />
<glyph unicode="&#xec;" horiz-adv-x="217" d="M-31 772q0 7 11 7h66q13 0 25 -15l97 -124q4 -4 4 -10q0 -7 -9 -7h-54q-5 0 -8.5 1.5t-6.5 4.5t-8 9l-113 126q-4 4 -4 8zM64 20v510q0 8 6 14t14 6h48q9 0 14.5 -5.5t5.5 -14.5v-510q0 -9 -6 -14.5t-14 -5.5h-48q-7 0 -13.5 6t-6.5 14z" />
<glyph unicode="&#xed;" horiz-adv-x="217" d="M55 630q0 6 4 10l98 124q8 10 12 12.5t12 2.5h66q11 0 11 -7q0 -4 -4 -8l-113 -126q-9 -10 -12.5 -12.5t-10.5 -2.5h-54q-9 0 -9 7zM64 20v510q0 8 6 14t14 6h48q9 0 14.5 -5.5t5.5 -14.5v-510q0 -9 -6 -14.5t-14 -5.5h-48q-7 0 -13.5 6t-6.5 14z" />
<glyph unicode="&#xee;" horiz-adv-x="217" d="M-57 630q0 6 4 10l96 124q8 10 12 12.5t12 2.5h85q13 0 25 -15l95 -124q4 -4 4 -10q0 -7 -9 -7h-52q-7 0 -10.5 2.5t-12.5 12.5l-82 97l-83 -97q-8 -9 -12 -12t-11 -3h-52q-9 0 -9 7zM64 20v510q0 8 6 14t14 6h48q9 0 14.5 -5.5t5.5 -14.5v-510q0 -9 -6 -14.5t-14 -5.5 h-48q-7 0 -13.5 6t-6.5 14z" />
<glyph unicode="&#xef;" horiz-adv-x="217" d="M-17 660v81q0 8 6.5 14t13.5 6h39q8 0 14 -6t6 -14v-81q0 -8 -6 -13.5t-14 -5.5h-39q-7 0 -13.5 5.5t-6.5 13.5zM64 20v510q0 8 6 14t14 6h48q9 0 14.5 -5.5t5.5 -14.5v-510q0 -9 -6 -14.5t-14 -5.5h-48q-7 0 -13.5 6t-6.5 14zM158 660v81q0 8 6 14t14 6h39q8 0 14 -6.5 t6 -13.5v-81q0 -8 -6 -13.5t-14 -5.5h-39q-8 0 -14 5.5t-6 13.5z" />
<glyph unicode="&#xf0;" d="M40 243v55q0 61 14 107t42.5 78.5t70.5 48.5t96 16q72 0 112 -36q-15 40 -51.5 74.5t-95.5 62.5l-86 -66q-7 -6 -13 -6q-5 0 -11 6l-17 19q-3 3 -3 7q0 9 10 17l61 47q-42 14 -79 22q-16 4 -16 15q0 3 1 5l12 34q3 11 14 11q5 0 8 -1q67 -16 124 -37l94 71q6 4 13 4 t12 -5l17 -18q4 -4 4 -8q0 -6 -10 -14l-73 -56q57 -32 95 -70.5t59.5 -84.5t31 -105t9.5 -138v-55q0 -61 -13.5 -107t-41.5 -78t-70 -48.5t-96 -16.5q-56 0 -98.5 17.5t-70 49.5t-41.5 78t-14 105zM129 243q0 -86 32 -130t103 -44q70 0 101.5 44t31.5 130v55 q0 56 -13.5 95.5t-43 59.5t-77.5 20q-70 0 -102 -44.5t-32 -130.5v-55z" />
<glyph unicode="&#xf1;" horiz-adv-x="531" d="M55 20v482q0 19 18 24q122 31 207 31q56 0 95 -14t60.5 -40t31 -64t9.5 -91v-328q0 -8 -6.5 -14t-13.5 -6h-48q-8 0 -14 6t-6 14v328q0 50 -12 79.5t-37.5 42t-66.5 12.5q-62 0 -129 -18v-444q0 -8 -6 -14t-14 -6h-49q-7 0 -13 6t-6 14zM92 651v21q0 53 25 81t70 28 q29 0 60 -24l71 -56q10 -7 19 -10.5t16 -3.5q16 0 23 10t7 34v23q0 7 5 12t12 5h31q6 0 11 -5.5t5 -11.5v-23q0 -53 -22.5 -79t-71.5 -26q-37 0 -64 21l-61 49q-17 14 -24.5 18t-16.5 4q-17 0 -24 -11.5t-7 -34.5v-21q0 -7 -5 -12t-12 -5h-31q-7 0 -11.5 5t-4.5 12z" />
<glyph unicode="&#xf2;" d="M40 237v76q0 113 57.5 178.5t164.5 65.5q108 0 165.5 -65.5t57.5 -178.5v-76q0 -112 -57.5 -178t-165.5 -66q-107 0 -164.5 66t-57.5 178zM117 772q0 7 11 7h66q13 0 25 -15l97 -124q4 -4 4 -10q0 -7 -9 -7h-54q-5 0 -8.5 1.5t-6.5 4.5t-8 9l-113 126q-4 4 -4 8zM128 237 q0 -167 134 -167q68 0 101.5 43.5t33.5 123.5v76q0 52 -14.5 89.5t-44.5 57.5t-76 20q-68 0 -101 -43.5t-33 -123.5v-76z" />
<glyph unicode="&#xf3;" d="M40 237v76q0 113 57.5 178.5t164.5 65.5q108 0 165.5 -65.5t57.5 -178.5v-76q0 -112 -57.5 -178t-165.5 -66q-107 0 -164.5 66t-57.5 178zM128 237q0 -167 134 -167q68 0 101.5 43.5t33.5 123.5v76q0 52 -14.5 89.5t-44.5 57.5t-76 20q-68 0 -101 -43.5t-33 -123.5v-76z M213 630q0 6 4 10l98 124q8 10 12 12.5t12 2.5h66q11 0 11 -7q0 -4 -4 -8l-113 -126q-9 -10 -12.5 -12.5t-10.5 -2.5h-54q-9 0 -9 7z" />
<glyph unicode="&#xf4;" d="M40 237v76q0 113 57.5 178.5t164.5 65.5q108 0 165.5 -65.5t57.5 -178.5v-76q0 -112 -57.5 -178t-165.5 -66q-107 0 -164.5 66t-57.5 178zM97 630q0 6 4 10l96 124q8 10 12 12.5t12 2.5h85q13 0 25 -15l95 -124q4 -4 4 -10q0 -7 -9 -7h-52q-7 0 -10.5 2.5t-12.5 12.5 l-82 97l-83 -97q-8 -9 -12 -12t-11 -3h-52q-9 0 -9 7zM128 237q0 -167 134 -167q68 0 101.5 43.5t33.5 123.5v76q0 52 -14.5 89.5t-44.5 57.5t-76 20q-68 0 -101 -43.5t-33 -123.5v-76z" />
<glyph unicode="&#xf5;" d="M40 237v76q0 113 57.5 178.5t164.5 65.5q108 0 165.5 -65.5t57.5 -178.5v-76q0 -112 -57.5 -178t-165.5 -66q-107 0 -164.5 66t-57.5 178zM91 651v21q0 53 25 81t70 28q29 0 60 -24l71 -56q10 -7 19 -10.5t16 -3.5q16 0 23 10t7 34v23q0 7 5 12t12 5h31q6 0 11 -5.5 t5 -11.5v-23q0 -53 -22.5 -79t-71.5 -26q-37 0 -64 21l-61 49q-17 14 -24.5 18t-16.5 4q-17 0 -24 -11.5t-7 -34.5v-21q0 -7 -5 -12t-12 -5h-31q-7 0 -11.5 5t-4.5 12zM128 237q0 -167 134 -167q68 0 101.5 43.5t33.5 123.5v76q0 52 -14.5 89.5t-44.5 57.5t-76 20 q-68 0 -101 -43.5t-33 -123.5v-76z" />
<glyph unicode="&#xf6;" d="M40 237v76q0 113 57.5 178.5t164.5 65.5q108 0 165.5 -65.5t57.5 -178.5v-76q0 -112 -57.5 -178t-165.5 -66q-107 0 -164.5 66t-57.5 178zM128 237q0 -167 134 -167q68 0 101.5 43.5t33.5 123.5v76q0 52 -14.5 89.5t-44.5 57.5t-76 20q-68 0 -101 -43.5t-33 -123.5v-76z M134 660v81q0 8 6.5 14t13.5 6h39q8 0 14 -6t6 -14v-81q0 -8 -6 -13.5t-14 -5.5h-39q-7 0 -13.5 5.5t-6.5 13.5zM309 660v81q0 8 6 14t14 6h39q8 0 14 -6.5t6 -13.5v-81q0 -8 -6 -13.5t-14 -5.5h-39q-8 0 -14 5.5t-6 13.5z" />
<glyph unicode="&#xf7;" horiz-adv-x="569" d="M72 366v49q0 7 6 11.5t14 4.5h385q8 0 14 -4.5t6 -11.5v-49q0 -16 -20 -16h-385q-20 0 -20 16zM236 162v89q0 8 6 13.5t14 5.5h56q8 0 13.5 -6t5.5 -13v-89q0 -8 -5.5 -13.5t-13.5 -5.5h-56q-7 0 -13.5 5.5t-6.5 13.5zM236 527v88q0 8 6.5 13.5t13.5 5.5h56 q8 0 13.5 -5.5t5.5 -13.5v-88q0 -7 -6 -13.5t-13 -6.5h-56q-7 0 -13.5 6t-6.5 14z" />
<glyph unicode="&#xf8;" d="M6 -27q0 7 4 11l71 96q-41 63 -41 157v76q0 113 57.5 178.5t164.5 65.5q30 0 54 -4.5t45.5 -14t40.5 -23.5l42 58q8 10 16 10h50q8 0 8 -8q0 -7 -4 -11l-70 -94q20 -30 30.5 -70t10.5 -87v-76q0 -112 -57.5 -178t-165.5 -66q-85 0 -139 42l-44 -60q-8 -10 -16 -10h-49 q-8 0 -8 8zM128 237q0 -47 10 -79l214 291q-34 31 -90 31q-134 0 -134 -167v-76zM172 101q33 -31 90 -31q135 0 135 167v76q0 42 -11 78z" />
<glyph unicode="&#xf9;" horiz-adv-x="531" d="M55 202v328q0 8 5.5 14t14.5 6h48q8 0 14 -6t6 -14v-328q0 -74 27 -104t89 -30q23 0 62 5.5t67 12.5v444q0 8 5.5 14t14.5 6h49q8 0 13.5 -6t5.5 -14v-482q0 -19 -18 -24q-120 -31 -207 -31q-74 0 -117.5 24.5t-61 70t-17.5 114.5zM120 772q0 7 11 7h66q13 0 25 -15 l97 -124q4 -4 4 -10q0 -7 -9 -7h-54q-5 0 -8.5 1.5t-6.5 4.5t-8 9l-113 126q-4 4 -4 8z" />
<glyph unicode="&#xfa;" horiz-adv-x="531" d="M55 202v328q0 8 5.5 14t14.5 6h48q8 0 14 -6t6 -14v-328q0 -74 27 -104t89 -30q23 0 62 5.5t67 12.5v444q0 8 5.5 14t14.5 6h49q8 0 13.5 -6t5.5 -14v-482q0 -19 -18 -24q-120 -31 -207 -31q-74 0 -117.5 24.5t-61 70t-17.5 114.5zM218 630q0 6 4 10l98 124q8 10 12 12.5 t12 2.5h66q11 0 11 -7q0 -4 -4 -8l-113 -126q-9 -10 -12.5 -12.5t-10.5 -2.5h-54q-9 0 -9 7z" />
<glyph unicode="&#xfb;" horiz-adv-x="531" d="M55 202v328q0 8 5.5 14t14.5 6h48q8 0 14 -6t6 -14v-328q0 -74 27 -104t89 -30q23 0 62 5.5t67 12.5v444q0 8 5.5 14t14.5 6h49q8 0 13.5 -6t5.5 -14v-482q0 -19 -18 -24q-120 -31 -207 -31q-74 0 -117.5 24.5t-61 70t-17.5 114.5zM100 630q0 6 4 10l96 124q8 10 12 12.5 t12 2.5h85q13 0 25 -15l95 -124q4 -4 4 -10q0 -7 -9 -7h-52q-7 0 -10.5 2.5t-12.5 12.5l-82 97l-83 -97q-8 -9 -12 -12t-11 -3h-52q-9 0 -9 7z" />
<glyph unicode="&#xfc;" horiz-adv-x="531" d="M55 202v328q0 8 5.5 14t14.5 6h48q8 0 14 -6t6 -14v-328q0 -74 27 -104t89 -30q23 0 62 5.5t67 12.5v444q0 8 5.5 14t14.5 6h49q8 0 13.5 -6t5.5 -14v-482q0 -19 -18 -24q-120 -31 -207 -31q-74 0 -117.5 24.5t-61 70t-17.5 114.5zM138 660v81q0 8 6.5 14t13.5 6h39 q8 0 14 -6t6 -14v-81q0 -8 -6 -13.5t-14 -5.5h-39q-7 0 -13.5 5.5t-6.5 13.5zM313 660v81q0 8 6 14t14 6h39q8 0 14 -6.5t6 -13.5v-81q0 -8 -6 -13.5t-14 -5.5h-39q-8 0 -14 5.5t-6 13.5z" />
<glyph unicode="&#xfd;" horiz-adv-x="520" d="M32 533q0 17 18 17h55q6 0 11 -5t6 -11l118 -434q6 -22 19 -22h16l122 457q1 7 6.5 11t12.5 4h56q16 0 16 -17q0 -5 -1 -7l-165 -576q-16 -57 -36.5 -88t-55 -45.5t-91.5 -14.5q-44 0 -84 9q-21 5 -21 16v37q0 16 19 16h3q66 -6 89 -6q44 0 65.5 17.5t33.5 67.5l10 41 h-14q-27 0 -44 12.5t-30 56.5l-133 457q-1 2 -1 7zM236 630q0 6 4 10l98 124q8 10 12 12.5t12 2.5h66q11 0 11 -7q0 -4 -4 -8l-113 -126q-9 -10 -12.5 -12.5t-10.5 -2.5h-54q-9 0 -9 7z" />
<glyph unicode="&#xfe;" horiz-adv-x="518" d="M55 -177v909q0 8 5.5 14t14.5 6h48q8 0 14 -6t6 -14v-185q63 10 117 10q56 0 97 -17t68.5 -49.5t40 -78t12.5 -102.5v-72q0 -119 -55 -182t-163 -63q-55 0 -117 11v-181q0 -8 -5.5 -13.5t-13.5 -5.5h-51q-8 0 -13 5.5t-5 13.5zM143 77q53 -10 117 -10q70 0 100 43t30 128 v72q0 55 -12 93t-41 59t-77 21q-61 0 -117 -10v-396z" />
<glyph unicode="&#xff;" horiz-adv-x="520" d="M32 533q0 17 18 17h55q6 0 11 -5t6 -11l118 -434q6 -22 19 -22h16l122 457q1 7 6.5 11t12.5 4h56q16 0 16 -17q0 -5 -1 -7l-165 -576q-16 -57 -36.5 -88t-55 -45.5t-91.5 -14.5q-44 0 -84 9q-21 5 -21 16v37q0 16 19 16h3q66 -6 89 -6q44 0 65.5 17.5t33.5 67.5l10 41 h-14q-27 0 -44 12.5t-30 56.5l-133 457q-1 2 -1 7zM143 660v81q0 8 6.5 14t13.5 6h39q8 0 14 -6t6 -14v-81q0 -8 -6 -13.5t-14 -5.5h-39q-7 0 -13.5 5.5t-6.5 13.5zM318 660v81q0 8 6 14t14 6h39q8 0 14 -6.5t6 -13.5v-81q0 -8 -6 -13.5t-14 -5.5h-39q-8 0 -14 5.5t-6 13.5z " />
<glyph unicode="&#x152;" horiz-adv-x="960" d="M48 307v129q0 81 20 141t56.5 98.5t85.5 56.5t109 18q64 0 115 -20.5t86 -61.5q44 82 191 82q73 0 121.5 -2.5t73.5 -6.5q5 0 7.5 -4.5t2.5 -9.5v-47q0 -12 -11 -12h-193q-53 0 -79.5 -10t-35 -32t-8.5 -62v-139h307q9 0 14.5 -5.5t5.5 -14.5v-38q0 -9 -6 -14.5t-14 -5.5 h-307v-169q0 -40 8.5 -62t35 -32t79.5 -10h193q11 0 11 -12v-47q0 -13 -10 -14q-58 -9 -195 -9q-147 0 -191 83q-25 -29 -55.5 -46.5t-67.5 -26.5t-78 -9q-59 0 -108.5 18t-86.5 56.5t-56.5 99t-19.5 140.5zM140 307q0 -81 21.5 -133t61 -75.5t96.5 -23.5q179 0 179 231v134 q0 67 -16 117.5t-56 80.5t-107 30q-87 0 -133 -55t-46 -177v-129z" />
<glyph unicode="&#x153;" horiz-adv-x="879" d="M40 237v76q0 113 57.5 178.5t164.5 65.5q120 0 179 -82q57 82 178 82q71 0 120.5 -28.5t74.5 -81.5t25 -124v-54q0 -22 -19 -22h-335v-10q0 -82 30 -124.5t108 -42.5q33 0 65 6.5t62.5 17t49.5 17.5q11 5 17 0.5t6 -13.5v-41q0 -7 -3.5 -10.5t-10.5 -7.5 q-87 -46 -185 -46q-127 0 -184 82q-58 -82 -178 -82q-107 0 -164.5 66t-57.5 178zM128 237q0 -167 134 -167q68 0 101.5 43.5t33.5 123.5v76q0 52 -14.5 89.5t-44.5 57.5t-76 20q-68 0 -101 -43.5t-33 -123.5v-76zM485 314h265v9q0 55 -14.5 90.5t-43 51t-73.5 15.5 q-134 0 -134 -157v-9z" />
<glyph unicode="&#x178;" horiz-adv-x="570" d="M28 729q0 6 4.5 10t12.5 4h61q5 0 10.5 -4.5t7.5 -9.5l138 -324q11 -26 23 -26q11 0 23 26l139 324q7 14 17 14h61q8 0 12.5 -4t4.5 -10q0 -4 -3 -11l-155 -348q-23 -53 -54 -66v-284q0 -8 -5.5 -14t-12.5 -6h-55q-7 0 -12.5 6t-5.5 14v284q-30 11 -54 66l-154 348 q-3 7 -3 11zM157 821v81q0 8 6.5 14t13.5 6h39q8 0 14 -6t6 -14v-81q0 -8 -6 -13.5t-14 -5.5h-39q-7 0 -13.5 5.5t-6.5 13.5zM332 821v81q0 8 6 14t14 6h39q8 0 14 -6.5t6 -13.5v-81q0 -8 -6 -13.5t-14 -5.5h-39q-8 0 -14 5.5t-6 13.5z" />
<glyph unicode="&#x2c6;" horiz-adv-x="365" d="M16 630q0 6 4 10l96 124q8 10 12 12.5t12 2.5h85q13 0 25 -15l95 -124q4 -4 4 -10q0 -7 -9 -7h-52q-7 0 -10.5 2.5t-12.5 12.5l-82 97l-83 -97q-8 -9 -12 -12t-11 -3h-52q-9 0 -9 7z" />
<glyph unicode="&#x2dc;" horiz-adv-x="467" d="M52 651v21q0 53 25 81t70 28q29 0 60 -24l71 -56q10 -7 19 -10.5t16 -3.5q16 0 23 10t7 34v23q0 7 5 12t12 5h31q6 0 11 -5.5t5 -11.5v-23q0 -53 -22.5 -79t-71.5 -26q-37 0 -64 21l-61 49q-17 14 -24.5 18t-16.5 4q-17 0 -24 -11.5t-7 -34.5v-21q0 -7 -5 -12t-12 -5h-31 q-7 0 -11.5 5t-4.5 12z" />
<glyph unicode="&#x2000;" horiz-adv-x="490" />
<glyph unicode="&#x2001;" horiz-adv-x="980" />
<glyph unicode="&#x2002;" horiz-adv-x="490" />
<glyph unicode="&#x2003;" horiz-adv-x="980" />
<glyph unicode="&#x2004;" horiz-adv-x="326" />
<glyph unicode="&#x2005;" horiz-adv-x="245" />
<glyph unicode="&#x2006;" horiz-adv-x="163" />
<glyph unicode="&#x2007;" horiz-adv-x="163" />
<glyph unicode="&#x2008;" horiz-adv-x="122" />
<glyph unicode="&#x2009;" horiz-adv-x="196" />
<glyph unicode="&#x200a;" horiz-adv-x="54" />
<glyph unicode="&#x2010;" horiz-adv-x="315" d="M39 269v47q0 8 5.5 13t13.5 5h199q19 0 19 -18v-47q0 -17 -19 -17h-199q-19 0 -19 17z" />
<glyph unicode="&#x2011;" horiz-adv-x="315" d="M39 269v47q0 8 5.5 13t13.5 5h199q19 0 19 -18v-47q0 -17 -19 -17h-199q-19 0 -19 17z" />
<glyph unicode="&#x2012;" horiz-adv-x="315" d="M39 269v47q0 8 5.5 13t13.5 5h199q19 0 19 -18v-47q0 -17 -19 -17h-199q-19 0 -19 17z" />
<glyph unicode="&#x2013;" horiz-adv-x="440" d="M35 259v47q0 7 5.5 12.5t13.5 5.5h332q9 0 14 -5.5t5 -12.5v-47q0 -8 -5 -12.5t-14 -4.5h-332q-19 0 -19 17z" />
<glyph unicode="&#x2014;" horiz-adv-x="810" d="M35 259v47q0 7 5.5 12.5t13.5 5.5h702q8 0 13.5 -5.5t5.5 -12.5v-47q0 -17 -19 -17h-702q-19 0 -19 17z" />
<glyph unicode="&#x2018;" horiz-adv-x="177" d="M24 536q0 5 1 8l61 189q5 19 19 19h46q9 0 9 -10q0 -6 -1 -9l-37 -189q-4 -19 -20 -19h-67q-11 0 -11 11z" />
<glyph unicode="&#x2019;" horiz-adv-x="177" d="M17 535q0 6 1 9l37 189q4 19 20 19h67q11 0 11 -11q0 -5 -1 -8l-61 -189q-6 -19 -19 -19h-46q-9 0 -9 10z" />
<glyph unicode="&#x201a;" horiz-adv-x="177" d="M14 -86q0 5 1 7l57 189q6 19 20 19h66q13 0 13 -11q0 -2 -2 -8l-75 -189q-4 -10 -7.5 -14.5t-11.5 -4.5h-49q-12 0 -12 12z" />
<glyph unicode="&#x201c;" horiz-adv-x="328" d="M17 536q0 5 1 8l61 189q5 19 19 19h46q9 0 9 -10q0 -6 -1 -9l-37 -189q-4 -19 -20 -19h-67q-11 0 -11 11zM175 536q0 5 1 8l61 189q6 19 19 19h46q9 0 9 -10q0 -6 -1 -9l-37 -189q-4 -19 -20 -19h-67q-11 0 -11 11z" />
<glyph unicode="&#x201d;" horiz-adv-x="328" d="M17 535q0 6 1 9l37 189q4 19 20 19h67q11 0 11 -11q0 -5 -1 -8l-61 -189q-6 -19 -19 -19h-46q-9 0 -9 10zM175 535q0 6 1 9l37 189q4 19 20 19h67q11 0 11 -11q0 -5 -1 -8l-61 -189q-5 -19 -19 -19h-46q-9 0 -9 10z" />
<glyph unicode="&#x201e;" horiz-adv-x="328" d="M5 -86q0 5 1 7l57 189q6 19 20 19h66q13 0 13 -11q0 -2 -2 -8l-75 -189q-4 -11 -7.5 -15t-11.5 -4h-49q-12 0 -12 12zM193 -86q0 5 1 7l57 189q6 19 20 19h66q13 0 13 -11q0 -2 -2 -8l-75 -189q-4 -11 -7.5 -15t-11.5 -4h-49q-12 0 -12 12z" />
<glyph unicode="&#x2022;" horiz-adv-x="350" d="M73 358q0 47 30.5 77.5t77.5 30.5t77.5 -30.5t30.5 -77.5q0 -46 -30.5 -77t-77.5 -31t-77.5 31t-30.5 77z" />
<glyph unicode="&#x2026;" horiz-adv-x="586" d="M40 19v94q0 8 6 13.5t14 5.5h56q9 0 14 -5.5t5 -13.5v-94q0 -8 -5.5 -13.5t-13.5 -5.5h-56q-8 0 -14 5.5t-6 13.5zM246 19v94q0 7 5.5 13t13.5 6h56q9 0 14.5 -5.5t5.5 -13.5v-94q0 -8 -6 -13.5t-14 -5.5h-56q-8 0 -13.5 5.5t-5.5 13.5zM451 19v94q0 8 6 13.5t14 5.5h56 q8 0 13.5 -5.5t5.5 -13.5v-94q0 -8 -5.5 -13.5t-13.5 -5.5h-56q-8 0 -14 5.5t-6 13.5z" />
<glyph unicode="&#x202f;" horiz-adv-x="196" />
<glyph unicode="&#x2039;" horiz-adv-x="339" d="M21 277q0 17 11 28l169 169q10 10 21 10h66q5 0 8 -2.5t3 -6.5q0 -7 -6 -13l-178 -185l178 -185q6 -6 6 -13q0 -9 -11 -9h-66q-11 0 -21 10l-169 169q-11 10 -11 28z" />
<glyph unicode="&#x203a;" horiz-adv-x="339" d="M40 79q0 7 6 13l178 185l-178 185q-6 6 -6 13q0 9 11 9h66q11 0 21 -10l169 -169q11 -12 11 -28q0 -7 -2.5 -14.5t-8.5 -13.5l-169 -169q-10 -10 -21 -10h-66q-11 0 -11 9z" />
<glyph unicode="&#x205f;" horiz-adv-x="245" />
<glyph unicode="&#x20ac;" horiz-adv-x="587" d="M42 285v28q0 8 5.5 14t14.5 6h32v81h-32q-8 0 -14 6t-6 14v28q0 8 5.5 14t14.5 6h33q7 98 50 158t103.5 85t125.5 25q47 0 94.5 -14t72.5 -28q6 -3 8 -5.5t2 -10.5v-49q0 -15 -17 -9q-41 15 -76.5 25t-82.5 10q-75 -1 -126.5 -44.5t-61.5 -142.5h290q8 0 12.5 -4.5 t4.5 -11.5v-2t-1 -2l-7 -28q-6 -20 -20 -20h-281v-81h257q15 0 15 -15v-2.5t-1 -2.5l-7 -28q-6 -20 -20 -20h-243q5 -67 32.5 -110t68 -61.5t88.5 -18.5q26 0 49.5 4t42 9t38 11t29.5 10q8 3 12.5 0.5t4.5 -9.5v-49q0 -8 -2 -10t-8 -6q-30 -16 -74.5 -29t-92.5 -13 q-47 0 -93.5 14t-87 45t-67 84t-31.5 129h-33q-8 0 -14 6t-6 14z" />
<glyph unicode="&#x2122;" horiz-adv-x="505" d="M20 718v16q0 10 10 10h168q5 0 8 -2.5t3 -7.5v-16q0 -9 -11 -9h-63v-218q0 -10 -10 -10h-21q-10 0 -10 10v218h-64q-10 0 -10 9zM236 488v245q0 3 3.5 6.5t6.5 3.5h40q8 0 11 -6l49 -113q2 -4 4 -4q3 0 4 4l49 113q2 6 11 6h40q4 0 7 -3t3 -7v-245q0 -7 -7 -7h-24 q-7 0 -7 7v208h-1l-38 -82q-7 -14 -15 -21.5t-22 -7.5t-22 7.5t-15 21.5l-38 82h-1v-208q0 -7 -7 -7h-24q-7 0 -7 7z" />
<glyph unicode="&#xfb01;" horiz-adv-x="601" d="M20 505v27q0 8 5.5 13t13.5 5h97v72q0 52 16 82.5t47 43.5t77 13q21 0 56 -6q19 -4 19 -16v-33q0 -15 -18 -15h-48q-36 0 -48.5 -14t-12.5 -55v-72h105q8 0 13.5 -5t5.5 -13v-39q0 -17 -19 -17h-105v-456q0 -8 -5.5 -14t-13.5 -6h-49q-9 0 -14.5 6t-5.5 14v456l-97 11 q-19 1 -19 18zM447 658v80q0 8 5.5 14t14.5 6h51q8 0 14 -6t6 -14v-80q0 -8 -6.5 -14t-13.5 -6h-51q-8 0 -14 6t-6 14zM448 20v510q0 8 5.5 14t14.5 6h48q8 0 14 -6t6 -14v-510q0 -8 -6.5 -14t-13.5 -6h-48q-8 0 -14 6t-6 14z" />
<glyph unicode="&#xfb02;" horiz-adv-x="599" d="M20 505v27q0 8 5.5 13t13.5 5h97v72q0 52 16 82.5t47 43.5t77 13q21 0 56 -6q19 -4 19 -16v-33q0 -15 -18 -15h-48q-36 0 -48.5 -14t-12.5 -55v-72h105q8 0 13.5 -5t5.5 -13v-39q0 -17 -19 -17h-105v-456q0 -8 -5.5 -14t-13.5 -6h-49q-9 0 -14.5 6t-5.5 14v456l-97 11 q-19 1 -19 18zM448 20v713q0 7 5 13t13 6h52q7 0 12.5 -5.5t5.5 -13.5v-713q0 -8 -5 -14t-13 -6h-52q-8 0 -13 5.5t-5 14.5z" />
</font>
</defs>
</svg>
